<?xml version="1.0" encoding="utf-8"?>
<!-- Generator: Adobe Illustrator 27.5.0, SVG Export Plug-In . SVG Version: 6.00 Build 0)  -->
<svg version="1.1" xmlns="http://www.w3.org/2000/svg" xmlns:xlink="http://www.w3.org/1999/xlink" x="0px" y="0px"
	 viewBox="0 0 500 500" style="enable-background:new 0 0 500 500;" xml:space="preserve">
<g id="BACKGROUND">
	<g>
		<rect style="fill:#F8D9B6;" width="500" height="500"/>
	</g>
</g>
<g id="OBJECTS">
	<g>
		<g>
			
				<ellipse transform="matrix(0.1333 -0.9911 0.9911 0.1333 68.1982 552.0474)" style="fill:#E2B292;" cx="349.745" cy="237.03" rx="21.846" ry="33.162"/>
		</g>
		<g>
			<g>
				<g>
					<path style="fill:#CE612E;" d="M308.73,199.803c0,0-0.808,10.306-2.471,9.803c-1.663-0.503-0.954-4.485-1.669-4.52
						c-0.716-0.035-5.453,6.882-6.617,6.53c-1.164-0.352,2.057-6.458,2.057-6.458s-5.56,7.577-6.725,7.225s4.416-9.194,4.416-9.194
						s-5.44,5.979-6.655,5.793c-1.215-0.186,4.578-7.33,4.578-7.33s-4.035,3.136-4.635,3.318c-0.6,0.182,6.28-9.356,10.795-11.077
						C306.318,192.175,309.64,194.995,308.73,199.803z"/>
				</g>
				<g>
					<path style="fill:#365650;" d="M304.267,164.324l-2.496,30.58c0.462,2.425,4.566,2.793,7.073,2.288l11.025-25.795
						L304.267,164.324z"/>
				</g>
			</g>
			<g>
				<g>
					<path style="fill:#CE612E;" d="M402.821,222.428c0,0-2.229,10.643-0.401,10.626c1.828-0.017,2.287-4.246,3.02-4.07
						c0.733,0.176,3.472,8.559,4.752,8.547c1.279-0.012-0.169-7.126-0.169-7.126s3.375,9.292,4.655,9.28
						c1.279-0.012-1.742-10.586-1.742-10.586s3.726,7.643,5.007,7.814c1.281,0.171-2.456-8.751-2.456-8.751s3.147,4.358,3.699,4.719
						c0.552,0.361-3.577-11.3-7.626-14.371C407.51,215.439,403.323,217.306,402.821,222.428z"/>
				</g>
				<g>
					<path style="fill:#365650;" d="M422.01,191.991l-10.817,28.084c-2.177,1.551-5.662,1.45-7.281,0.208l-1.456-27.46
						L422.01,191.991z"/>
				</g>
			</g>
			<g>
				<path style="fill:#2B2C20;" d="M362.131,242.659c0,0,1.624,11.12-1.073,12.572c-2.704,1.456-5.635-12.482-5.635-12.482
					L362.131,242.659z"/>
			</g>
			<g>
				<path style="fill:#2B2C20;" d="M331.999,236.665c0,0-4.367,8.629-3.483,11.197c1.309,3.802,9.514-7.097,9.514-7.097
					L331.999,236.665z"/>
			</g>
			<g>
				<path style="fill:#EE8522;" d="M377.773,223.658l-15.675,19.716c0,0-3.537,2.051-7.489-0.416l-0.208-22.259L377.773,223.658z"/>
			</g>
			<g>
				<path style="fill:#EE8522;" d="M331.805,213.808l-0.702,24.573c0,0,3.745,3.744,6.865,2.288l9.569-19.555L331.805,213.808z"/>
			</g>
			<g>
				<path style="fill:#365650;" d="M398.27,210.36c-0.172,0.124-0.344,0.25-0.518,0.376c-3.342,2.442-6.758,5.068-10.088,7.932
					c-0.05,0.042-0.102,0.086-0.152,0.13c-0.122,0.104-0.242,0.208-0.364,0.31c-1.652,1.394-3.322,2.606-5,3.65
					c-0.172,0.106-0.342,0.21-0.512,0.314c-4.77,2.87-9.608,4.416-14.31,5.04c-0.216,0.03-0.434,0.058-0.65,0.082
					c-3.784,0.438-7.474,0.286-10.964-0.242c-0.2-0.03-0.398-0.06-0.596-0.092c-8.128-1.336-15.116-4.674-19.588-7.278
					c-0.18-0.106-0.356-0.208-0.526-0.312c-1.948-1.158-3.36-2.142-4.108-2.692c-0.818-0.602-1.904-1.682-3.182-3.14
					c-0.172-0.196-0.348-0.4-0.528-0.612c-4.924-5.78-12.332-16.57-18.332-27.246c-0.14-0.25-0.28-0.5-0.418-0.75
					c-1.47-2.644-2.848-5.272-4.076-7.808c-0.086-0.18-0.17-0.358-0.256-0.534c-4.062-8.506-6.358-15.9-4.62-19.198
					c1.866-3.54,9.052-6.452,18.754-8.298c0.204-0.04,0.41-0.078,0.618-0.116c16.556-3.04,40.114-3.022,57.182,2.162
					c0,0,16.736,8.472,31.142,17.842c0.166,0.108,0.332,0.216,0.496,0.324c4.226,2.764,8.23,5.6,11.524,8.312
					c0.262,0.214,0.518,0.43,0.77,0.642c0.058,0.048,0.114,0.096,0.17,0.144C432.086,189.478,416.378,197.206,398.27,210.36z"/>
			</g>
			<g>
				<g>
					<path style="fill:#558279;" d="M314.73,171.588c-2.902,2.968-6.5,5.054-10.372,6.434c-0.086-0.18-0.17-0.358-0.256-0.534
						c1.128-0.398,2.236-0.86,3.312-1.392c5.31-2.626,9.856-7.056,11.8-12.742c1.498-4.378,1.21-9.328-0.978-13.362
						c0.204-0.04,0.41-0.078,0.618-0.116c0.906,1.716,1.496,3.594,1.754,5.542C321.404,161.432,318.908,167.32,314.73,171.588z"/>
				</g>
			</g>
			<g>
				<g>
					<path style="fill:#558279;" d="M327.712,214.438c-0.172-0.196-0.348-0.4-0.528-0.612c0.124-1.104,0.212-2.214,0.252-3.328
						c0.234-6.496-1.388-13.25-6.39-17.726c-3.444-3.082-7.794-4.822-12.194-6.192c-0.14-0.25-0.28-0.5-0.418-0.75
						c2.276,0.7,4.526,1.484,6.69,2.48c2.694,1.242,5.26,2.84,7.33,4.984c2.236,2.316,3.758,5.204,4.624,8.292
						C328.262,205.808,328.23,210.138,327.712,214.438z"/>
				</g>
			</g>
			<g>
				<g>
					<path style="fill:#558279;" d="M387.664,218.668c-0.05,0.042-0.102,0.086-0.152,0.13c-0.122,0.104-0.242,0.208-0.364,0.31
						c-0.404-2.038-1.104-4-2.262-5.81c-2.84-4.438-8.026-6.096-13.022-6.586c-5.062-0.498-10.152-0.21-15.142-1.364
						c-4.378-1.012-8.654-2.974-11.762-6.292c-2.85-3.04-4.652-7.06-4.446-11.268c0.018-0.386,0.618-0.386,0.6,0
						c-0.26,5.304,2.768,10.238,7.018,13.236c4.144,2.922,9.238,4.172,14.23,4.576c5.03,0.408,10.202,0.034,15.074,1.59
						c4.182,1.336,7.474,4.07,9.192,8.152C387.084,216.428,387.422,217.54,387.664,218.668z"/>
				</g>
			</g>
			<g>
				<g>
					<path style="fill:#558279;" d="M382.148,222.758c-0.172,0.106-0.342,0.21-0.512,0.314c-0.704-1.662-2.038-3.042-3.696-3.844
						c-2.49-1.204-5.386-0.708-7.558,0.922c-2.644,1.984-3.568,5.064-3.056,7.962c-0.216,0.03-0.434,0.058-0.65,0.082
						c-0.016-0.086-0.03-0.17-0.044-0.256c-0.71-4.608,2.512-9.166,7.164-9.898C377.324,217.486,380.764,219.624,382.148,222.758z"
						/>
				</g>
			</g>
			<g>
				<g>
					<path style="fill:#558279;" d="M407.674,170.204c-2.014,3.514-5.424,6.112-9.528,6.762c-4.884,0.774-10.082-1.01-13.282-4.816
						c-0.248-0.294,0.174-0.72,0.424-0.424c3.93,4.674,11.104,6.254,16.566,3.404c2.272-1.186,4.092-3.05,5.324-5.25
						C407.344,169.988,407.51,170.096,407.674,170.204z"/>
				</g>
			</g>
			<g>
				<g>
					<path style="fill:#558279;" d="M419.968,179.158c-1.76-0.164-3.546-0.082-5.298,0.24c-7.056,1.296-12.732,6.416-15.558,12.906
						c-2.488,5.718-2.548,12.138-0.842,18.056c-0.172,0.124-0.344,0.25-0.518,0.376c-0.874-2.926-1.324-5.974-1.258-9.044
						c0.162-7.334,3.464-14.546,9.354-19.03c3.822-2.908,8.624-4.37,13.35-4.146C419.46,178.73,419.716,178.946,419.968,179.158z"/>
				</g>
			</g>
			<g>
				<g>
					<path style="fill:#558279;" d="M355.712,227.952c-0.2-0.03-0.398-0.06-0.596-0.092c1.066-5.616-1.782-11.59-7.528-13.336
						c-2.834-0.862-5.924-0.514-8.38,1.184c-1.722,1.19-3.028,2.916-3.68,4.874c-0.18-0.106-0.356-0.208-0.526-0.312
						c0.558-1.614,1.536-3.074,2.828-4.234c3.76-3.372,9.392-3.284,13.394-0.36C355.054,218.474,356.576,223.412,355.712,227.952z"
						/>
				</g>
			</g>
			<g>
				<g>
					<path style="fill:#2B2C20;" d="M303.111,176.108c2.134,5.303,4.879,10.325,8.205,14.975c0.223,0.311,0.743,0.012,0.518-0.303
						c-3.294-4.606-6.03-9.578-8.144-14.831C303.548,175.595,302.967,175.749,303.111,176.108L303.111,176.108z"/>
				</g>
			</g>
			<g>
				<g>
					<path style="fill:#2B2C20;" d="M420.088,193.852c-5.318,4.285-10.788,8.377-16.399,12.269
						c-0.315,0.219-0.015,0.739,0.303,0.518c5.654-3.921,11.163-8.045,16.521-12.363
						C420.813,194.035,420.386,193.612,420.088,193.852L420.088,193.852z"/>
				</g>
			</g>
			<g>
				<g>
					<path style="fill:#2B2C20;" d="M332.757,148.023c-1.25,8.174-2.14,16.616-0.298,24.775c1.428,6.324,4.727,12.466,9.872,16.525
						c5.191,4.095,11.807,5.318,18.216,3.92c6.83-1.49,12.819-5.547,17.384-10.754c5.585-6.372,9.224-14.132,12.625-21.814
						c0.155-0.35-0.362-0.656-0.518-0.303c-5.568,12.577-12.486,26.47-26.363,31.354c-6.302,2.218-13.321,2.079-19.083-1.536
						c-5.449-3.418-9.134-9.213-10.961-15.288c-2.604-8.66-1.638-17.93-0.294-26.718
						C333.393,147.804,332.815,147.642,332.757,148.023L332.757,148.023z"/>
				</g>
			</g>
			<g>
				<g>
					<path style="fill:#CE612E;" d="M354.395,187.623c4.483,0.345,8.475-1.119,11.941-3.505
						c8.319-5.723,13.597-16.748,15.317-20.771l-45.254-5.067C336.399,158.279,335.465,186.167,354.395,187.623z"/>
				</g>
				<g>
					<path style="fill:#2B2C20;" d="M336.399,158.279c0,0,7.803,24.768,27.982,25.808c0.668,0.035,1.319,0.046,1.955,0.031
						c8.319-5.723,13.597-16.748,15.317-20.771L336.399,158.279z"/>
				</g>
			</g>
			<g>
				<g>
					<path style="fill:#2B2C20;" d="M380.174,82.552c0,0,12.328-0.698,13.491,6.281c1.163,6.978-0.814,10.816-0.814,10.816
						s13.142,1.744,11.049,11.979c-1.327,6.486-4.071,7.56-4.071,7.56s3.722,14.189-5.117,22.098s-62.264-5.124-62.264-5.124
						s-8.915-20.463-4.495-26.977s3.954-6.513,3.954-6.513s-5.118-9.537,1.163-16.05c6.28-6.513,12.328-4.885,12.328-4.885
						s-2.094-11.863,4.652-13.957s11.631,7.676,11.631,7.676s4.187-13.026,10.933-10.002
						C379.36,68.479,380.174,82.552,380.174,82.552z"/>
				</g>
				<g>
					<g>
						<path style="fill:#CE612E;" d="M392.619,133.843c0,0,5.932-5.234,9.188,1.744c3.257,6.978-7.095,21.749-16.399,17.795
							L392.619,133.843z"/>
					</g>
					<g>
						<g>
							<g>
								<path style="fill:#2B2C20;" d="M398.483,136.406c-3.113,3.736-5.596,7.901-7.409,12.412
									c-0.288,0.716,0.872,1.028,1.157,0.319c1.73-4.306,4.13-8.318,7.1-11.883C399.822,136.666,398.978,135.812,398.483,136.406
									L398.483,136.406z"/>
							</g>
						</g>
						<g>
							<g>
								<path style="fill:#2B2C20;" d="M393.8,144.357c0.788,0.502,1.605,0.949,2.453,1.341c0.696,0.322,1.307-0.712,0.606-1.036
									c-0.848-0.392-1.666-0.839-2.454-1.341C393.752,142.905,393.15,143.943,393.8,144.357L393.8,144.357z"/>
							</g>
						</g>
					</g>
				</g>
				<g>
					<g>
						<path style="fill:#CE612E;" d="M333.651,124.976c0,0-3.933-6.863-9.261-1.303c-5.328,5.56-0.277,22.875,9.805,22.123
							L333.651,124.976z"/>
					</g>
					<g>
						<g>
							<g>
								<path style="fill:#2B2C20;" d="M326.158,125.942c1.686,4.386,2.683,8.983,2.941,13.676c0.042,0.768,1.242,0.773,1.2,0
									c-0.264-4.798-1.26-9.509-2.984-13.995C327.041,124.91,325.88,125.22,326.158,125.942L326.158,125.942z"/>
							</g>
						</g>
						<g>
							<g>
								<path style="fill:#2B2C20;" d="M328.872,133.385c-0.856,0.209-1.719,0.366-2.595,0.459c-0.76,0.081-0.768,1.282,0,1.2
									c0.983-0.105,1.953-0.268,2.914-0.502C329.941,134.359,329.623,133.202,328.872,133.385L328.872,133.385z"/>
							</g>
						</g>
					</g>
				</g>
				<g>
					<path style="fill:#CE612E;" d="M344.14,99.967c24.57-16.572,56.686,6.015,49.869,34.857
						c-1.912,8.089-5.073,18.19-10.029,25.839c-9.755,15.058-22.72,17.573-32.884,14.701c-10.7-3.024-23.6-25.965-17.446-56.757
						C335.238,110.668,337.993,104.113,344.14,99.967z"/>
				</g>
				<g>
					<path style="fill:#2B2C20;" d="M394.443,132.701c0,0-3.228,0.574-4.445,8.243l-3.544-0.704c0,0,5.117-8.374,0.93-14.422
						c-4.187-6.048-8.374-13.026-6.978-15.352c0,0-19.074,6.048-26.052,0s0-8.141,0-8.141s-6.746-0.465-9.304,6.28
						c-2.559,6.746-5.583,9.072-7.676,10.933c-2.093,1.861-1.628,9.537-1.628,9.537l-3.689-1.628c0,0,0.665-17.678,7.875-25.82
						c7.211-8.141,25.587-12.096,36.985-7.211C388.315,99.3,401.734,115.625,394.443,132.701z"/>
				</g>
				<g style="opacity:0.5;">
					<path style="fill:#833900;" d="M371.041,146.048c-0.272,2.023,2.383,4.051,5.93,4.528c3.547,0.477,6.644-0.776,6.916-2.8
						c0.272-2.023-2.383-4.051-5.93-4.528C374.409,142.771,371.313,144.025,371.041,146.048z"/>
				</g>
				<g style="opacity:0.5;">
					<path style="fill:#833900;" d="M335.781,141.682c-0.272,2.023,2.383,4.051,5.93,4.528c3.547,0.477,6.644-0.776,6.916-2.8
						c0.272-2.023-2.383-4.051-5.93-4.528C339.149,138.405,336.053,139.659,335.781,141.682z"/>
				</g>
				<g>
					<g>
						<path style="fill:#833900;" d="M360.123,166.528c-2.356,1.075-5.072,0.766-7.182-0.702c-0.635-0.442-1.236,0.598-0.606,1.036
							c2.485,1.728,5.657,1.951,8.394,0.702C361.43,167.244,360.821,166.21,360.123,166.528L360.123,166.528z"/>
					</g>
				</g>
				<g>
					<g>
						<g>
							<path style="fill:#2B2C20;" d="M378.175,136.185c-1.421-3.441-5.741-4.655-8.98-3.098c-0.696,0.335-0.088,1.37,0.606,1.036
								c2.478-1.191,6.107-0.309,7.218,2.381C377.309,137.208,378.47,136.899,378.175,136.185L378.175,136.185z"/>
						</g>
					</g>
					<g>
						<path style="fill:#2B2C20;" d="M370.636,135.645c-0.29,1.779,0.561,3.397,1.901,3.616c1.34,0.219,2.661-1.046,2.952-2.825
							s-0.561-3.397-1.901-3.616S370.926,133.867,370.636,135.645z"/>
					</g>
				</g>
				<g>
					<g>
						<g>
							<path style="fill:#2B2C20;" d="M344.683,131.89c2-2.224,5.681-1.926,7.701,0.107c0.545,0.549,1.394-0.3,0.849-0.848
								c-2.459-2.476-6.965-2.812-9.398-0.107C343.319,131.614,344.165,132.466,344.683,131.89L344.683,131.89z"/>
						</g>
					</g>
					<g>
						<path style="fill:#2B2C20;" d="M351.056,133.119c-0.317,1.774-1.658,3.018-2.994,2.779c-1.336-0.239-2.163-1.871-1.845-3.645
							c0.317-1.774,1.658-3.018,2.994-2.779C350.547,129.714,351.373,131.345,351.056,133.119z"/>
					</g>
				</g>
				<g>
					<g>
						<path style="fill:#2B2C20;" d="M358.977,134.267c-0.214,3.024-1.174,5.628-2.345,8.389c-0.786,1.851-1.04,4.314,0.972,5.483
							c0.669,0.389,1.274-0.648,0.606-1.036c-2.224-1.292-0.235-4.397,0.425-6.021c0.884-2.177,1.377-4.474,1.543-6.814
							C360.232,133.497,359.031,133.5,358.977,134.267L358.977,134.267z"/>
					</g>
				</g>
				<g>
					<path style="fill:#FDF2F0;" d="M368.776,154.894c0,0-13.724-0.233-21.4-2.559c0,0,0.465,11.165,10.467,11.863
						C365.978,164.766,368.776,154.894,368.776,154.894z"/>
				</g>
				<g>
					<g>
						<path style="fill:#2B2C20;" d="M383.666,129.331c-1.433-4.71-7.523-8.224-12.278-6.354c-0.751,0.295-1.283,1.006-1.048,1.845
							c0.201,0.717,1.085,1.347,1.845,1.048c3.213-1.264,7.59,0.979,8.587,4.259C381.334,131.971,384.23,131.186,383.666,129.331
							L383.666,129.331z"/>
					</g>
				</g>
				<g>
					<g>
						<path style="fill:#2B2C20;" d="M344.082,125.515c1.777-2.578,6.661-3.656,9.194-1.59c0.633,0.516,1.501,0.607,2.121,0
							c0.534-0.523,0.626-1.611,0-2.121c-4.103-3.345-10.951-2.09-13.906,2.198C340.394,125.594,342.993,127.096,344.082,125.515
							L344.082,125.515z"/>
					</g>
				</g>
			</g>
		</g>
	</g>
	<g>
		<g>
			
				<ellipse transform="matrix(0.8783 -0.4782 0.4782 0.8783 -175.8121 141.7343)" style="fill:#E2B292;" cx="190.443" cy="416.14" rx="33.162" ry="21.846"/>
		</g>
		<g>
			<g>
				<g>
					<path style="fill:#2B2C20;" d="M184.074,424.149c0,0,3.952,9.361,5.617,9.361c2.496,0-1.664-12.065-1.664-12.065
						L184.074,424.149z"/>
				</g>
				<g>
					<path style="fill:#A14700;" d="M161.323,412.283l22.751,11.866c0,0,1.054,0.942,3.952-2.704l-5.668-19.768L161.323,412.283z"/>
				</g>
				<g>
					<path style="fill:#EE8522;" d="M161.399,411.875c0,0,9.153,7.905,11.441,8.737c2.288,0.832,13.106-0.832,14.354-6.865
						l-3.12-8.321L161.399,411.875z"/>
				</g>
				<g>
					<path style="fill:#2B2C20;" d="M201.732,415.195c0,0,6.401,7.892,5.618,9.36c-1.174,2.203-9.864-7.145-9.864-7.145
						L201.732,415.195z"/>
				</g>
				<g>
					<path style="fill:#A14700;" d="M201.964,389.537l-0.232,25.658c0,0,0.336,1.373-4.246,2.216l-14.778-14.301L201.964,389.537z"
						/>
				</g>
				<g>
					<path style="fill:#EE8522;" d="M201.569,389.412c0,0,2.67,11.796,2.327,14.207c-0.342,2.411-6.9,11.173-12.81,9.437
						l-5.875-6.668L201.569,389.412z"/>
				</g>
				<g>
					<path style="fill:#2B2C20;" d="M139.001,344.209c0,0-23.043,24.19-32.44,40.446c-9.397,16.256,17.338,15.966,43.96,26.305
						c29.645,11.513,49.842-15.509,52.947-20.089c5.141-7.586,17.744-59.034,9.768-66.38
						C205.26,317.145,162.031,327.206,139.001,344.209z"/>
				</g>
				<g>
					<path style="fill:#2B2C20;" d="M132.067,402.306c0,0-72.057-9.172-89.207-21.314c-19.629-13.898,17.13-38.298,74.853-54.199
						l2.288,3.536c0,0-8.945,14.562-31.204,30.788l37.141-2.842C125.939,358.274,135.674,396.733,132.067,402.306z"/>
				</g>
				<g>
					<path style="fill:#2B2C20;" d="M210.556,356.246c0,0,32.468-64.978,31.921-85.984c-0.627-24.043-41.354-7.073-86.682,32.044
						l1.665,3.869c0,0,17.077,0.669,42.944-8.799l-23.026,29.281C177.378,326.656,203.918,356.141,210.556,356.246z"/>
				</g>
				<g>
					<g>
						<path style="fill:#4C4C38;" d="M118.314,400.913c7.379,1.832,14.904,3.008,22.49,3.517c0.385,0.026,0.384-0.574,0-0.6
							c-7.534-0.506-15.003-1.676-22.331-3.495C118.099,400.241,117.939,400.819,118.314,400.913L118.314,400.913z"/>
					</g>
				</g>
				<g>
					<g>
						<path style="fill:#4C4C38;" d="M213.773,348.744c-3.106,8.118-6.212,16.237-9.318,24.355
							c-0.138,0.361,0.442,0.517,0.578,0.159c3.106-8.118,6.212-16.237,9.318-24.355
							C214.489,348.543,213.91,348.386,213.773,348.744L213.773,348.744z"/>
					</g>
				</g>
				<g>
					<g>
						<path style="fill:#4C4C38;" d="M180.2,327.979c8.596,0.07,16.148,5.838,18.471,14.112c0.104,0.371,0.683,0.213,0.579-0.159
							c-2.395-8.53-10.189-14.48-19.05-14.552C179.814,327.375,179.814,327.975,180.2,327.979L180.2,327.979z"/>
					</g>
				</g>
				<g>
					<g>
						<path style="fill:#4C4C38;" d="M127.347,358.207c-1.684,5.773-0.624,12.122,2.859,17.026c0.222,0.312,0.742,0.013,0.518-0.303
							c-3.396-4.782-4.441-10.932-2.799-16.564C128.034,357.995,127.455,357.836,127.347,358.207L127.347,358.207z"/>
					</g>
				</g>
				<g>
					<g>
						<path style="fill:#EE8522;" d="M136.116,356.86c4.66,5.915,10.479,10.89,16.704,15.091c3.141,2.12,6.419,4.042,9.816,5.721
							c3.154,1.559,6.442,3.035,9.874,3.859c3.155,0.757,6.629,1.008,9.678-0.3c2.989-1.282,4.953-3.931,5.874-6.992
							c0.972-3.233,0.884-6.672,0.544-9.995c-0.377-3.686-1.112-7.33-2.065-10.908c-2.184-8.206-5.442-16.188-9.541-23.622
							c-0.373-0.676-1.41-0.072-1.036,0.606c3.453,6.263,6.264,12.9,8.381,19.731c1.058,3.416,1.938,6.893,2.54,10.419
							c0.565,3.306,0.969,6.744,0.659,10.098c-0.3,3.24-1.436,6.68-4.191,8.646c-2.735,1.952-6.284,2.01-9.466,1.391
							c-3.306-0.644-6.45-1.969-9.48-3.405c-3.252-1.54-6.396-3.309-9.42-5.257c-6.746-4.345-13.04-9.61-18.021-15.932
							C136.487,355.406,135.643,356.26,136.116,356.86L136.116,356.86z"/>
					</g>
				</g>
				<g>
					<g>
						<path style="fill:#A14700;" d="M171.299,370.504c-4.109,1.825-8.361,1.78-12.425,0.691
							c-9.754-2.61-18.416-11.235-21.383-14.451l40.951-19.915C178.442,336.83,188.652,362.798,171.299,370.504z"/>
					</g>
					<g>
						<path style="fill:#2B2C20;" d="M178.442,336.83c0,0,0.932,25.951-17.736,33.682c-0.618,0.257-1.228,0.484-1.832,0.684
							c-9.754-2.61-18.416-11.235-21.383-14.451L178.442,336.83z"/>
					</g>
				</g>
				<g>
					<g>
						<path style="fill:#2B2C20;" d="M111.473,321.592c0,0-12.274-1.248-10.401-6.241c0.817-2.178,3.536-1.872,3.536-1.872
							s-8.529-9.361-6.865-12.066c1.664-2.704,4.785-2.08,4.785-2.08s-3.536-5.617-1.04-8.737c2.563-3.204,6.449-2.288,6.449-2.288
							s-4.993-7.489,0-11.233c2.755-2.066,7.697,0,7.697,0s-1.066-5.608,2.704-6.865c4.993-1.664,7.281,3.12,7.281,3.12
							s0.832-6.033,4.993-6.449c4.16-0.416,6.865,4.577,6.865,4.577s2.735-3.89,6.033-3.12c6.241,1.456,8.321,9.361,8.321,9.361
							s3.12-4.161,4.993-3.12c3.591,1.995,5.617,11.858,6.865,17.682L111.473,321.592z"/>
					</g>
					<g>
						<g>
							<path style="fill:#A14700;" d="M117.287,332.609c0,0-7.341-2.948-8.075,4.718c-0.734,7.666,13.962,18.122,21.407,11.283
								L117.287,332.609z"/>
						</g>
						<g>
							<path style="fill:#FDF2F0;" d="M121.978,347.254c1.069,0.776,1.564,1.918,1.105,2.551c-0.459,0.633-1.698,0.517-2.768-0.259
								c-1.069-0.776-1.564-1.918-1.105-2.551C119.67,346.363,120.909,346.479,121.978,347.254z"/>
						</g>
						<g>
							<g>
								<g>
									<path style="fill:#2B2C20;" d="M112.058,338.047c4.046,2.398,7.667,5.401,10.779,8.927c0.512,0.58,1.358-0.271,0.849-0.849
										c-3.176-3.598-6.893-6.668-11.022-9.115C111.997,336.616,111.393,337.653,112.058,338.047L112.058,338.047z"/>
								</g>
							</g>
							<g>
								<g>
									<path style="fill:#2B2C20;" d="M118.808,342.102c-0.574,0.737-1.195,1.432-1.864,2.084
										c-0.553,0.54,0.295,1.389,0.849,0.849c0.668-0.653,1.29-1.347,1.864-2.084c0.201-0.258,0.246-0.597,0-0.849
										C119.451,341.892,119.007,341.847,118.808,342.102L118.808,342.102z"/>
								</g>
							</g>
						</g>
					</g>
					<g>
						<g>
							<path style="fill:#A14700;" d="M169.89,304.527c0,0,1.411-7.784,8.292-4.326c6.881,3.458,7.913,21.465-1.839,24.129
								L169.89,304.527z"/>
						</g>
						<g>
							<path style="fill:#FDF2F0;" d="M179.033,318.038c-0.185,1.308,0.292,2.458,1.066,2.567c0.774,0.11,1.552-0.862,1.737-2.17
								s-0.292-2.458-1.066-2.567C179.996,315.758,179.218,316.73,179.033,318.038z"/>
						</g>
						<g>
							<g>
								<g>
									<path style="fill:#2B2C20;" d="M175.013,303.806c-0.123,4.804,0.503,9.585,1.859,14.195
										c0.226,0.769,1.431,0.442,1.203-0.332c-1.326-4.51-1.934-9.164-1.814-13.863
										C176.281,303.003,175.033,303.003,175.013,303.806L175.013,303.806z"/>
								</g>
							</g>
							<g>
								<g>
									<path style="fill:#2B2C20;" d="M176.211,312.908c0.985-0.101,1.959-0.26,2.922-0.491c0.781-0.187,0.45-1.391-0.332-1.203
										c-0.855,0.204-1.716,0.357-2.59,0.446C175.419,311.74,175.411,312.989,176.211,312.908L176.211,312.908z"/>
								</g>
							</g>
						</g>
					</g>
					<g>
						<path style="fill:#A14700;" d="M170.307,357.849c-8.618,6.108-21.678,8.073-35.907-2.854
							c-7.229-5.55-13.588-14.013-18.096-20.996c-0.325-0.501-0.632-1.005-0.924-1.512c-2.54-4.4-3.913-8.989-4.296-13.517
							c-1.77-20.859,17.451-40.457,40.555-34.501c4.057,1.046,7.35,3.179,10.195,6.089c2.193,2.24,4.119,4.945,5.925,7.969
							c1.194,1.999,2.274,3.992,3.249,5.972c0.002,0.006,0.004,0.008,0.004,0.008v0.002
							C183.169,329.228,178.705,351.897,170.307,357.849z"/>
					</g>
					<g>
						<g>
							<path style="fill:#2B2C20;" d="M161.658,313.898c-3.7,0.501-6.689,3.414-7.322,7.087c-0.205,1.19,1.651,1.44,1.855,0.255
								c0.492-2.854,2.851-5.098,5.714-5.486C163.099,315.592,162.854,313.736,161.658,313.898L161.658,313.898z"/>
						</g>
					</g>
					<g>
						<g>
							<path style="fill:#2B2C20;" d="M151.293,344.572c5.782,0.238,10.969-3.247,13.021-8.633c0.275-0.722-0.884-1.035-1.157-0.319
								c-1.866,4.896-6.648,7.967-11.864,7.753C150.52,343.34,150.522,344.54,151.293,344.572L151.293,344.572z"/>
						</g>
					</g>
					<g>
						<path style="fill:#6D2A00;" d="M171.012,304.506v0.002l-1.084,5.434l-10.401-13.938c0,0,0.539-4.853,2.307-5.448
							c2.193,2.24,4.119,4.945,5.925,7.969c1.194,1.999,2.274,3.992,3.249,5.972C171.01,304.504,171.012,304.506,171.012,304.506z"
							/>
					</g>
					<g>
						<path style="fill:#6D2A00;" d="M125.619,338.858l-2.357,0.922c0,0-4.183-2.788-7.882-7.293
							c-2.54-4.4-3.913-8.989-4.296-13.517c1.548-1.261,4.666-0.208,6.63,1.999L125.619,338.858z"/>
					</g>
					<g>
						<path style="fill:#2B2C20;" d="M151.83,288.515c-11.47-0.015-31.906,8.791-36.405,22.467l2.288,9.985
							c0,0-0.624,1.664-6.241,0.624s-8.113-33.908,18.306-38.277c26.419-4.369,30.372,3.744,30.372,3.744l3.536,5.201l-4.16,3.745
							L151.83,288.515z"/>
					</g>
					<g style="opacity:0.5;">
						<path style="fill:#6D2A00;" d="M141.705,336.893c0.934,1.816-0.89,4.614-4.074,6.251c-3.183,1.636-6.52,1.491-7.454-0.325
							c-0.933-1.816,0.89-4.614,4.074-6.251C137.434,334.932,140.771,335.077,141.705,336.893z"/>
					</g>
					<g style="opacity:0.5;">
						<path style="fill:#6D2A00;" d="M173.473,320.983c0.933,1.816-0.89,4.614-4.074,6.251c-3.183,1.636-6.521,1.491-7.454-0.325
							c-0.933-1.816,0.89-4.614,4.074-6.251C169.202,319.022,172.539,319.167,173.473,320.983z"/>
					</g>
					<g>
						<g>
							<path style="fill:#6D2A00;" d="M159.183,349.361c3.018-0.277,5.595-2.154,6.888-4.874c0.345-0.727-0.83-1.149-1.172-0.429
								c-1.11,2.335-3.381,3.841-5.937,4.075C158.162,348.206,158.388,349.434,159.183,349.361L159.183,349.361z"/>
						</g>
					</g>
					<g>
						<g>
							<g>
								<path style="fill:#2B2C20;" d="M132.88,329.941c0.152-3.005,3.305-4.999,6.116-4.691c0.767,0.084,0.761-1.117,0-1.2
									c-3.494-0.383-7.134,2.278-7.316,5.891C131.641,330.713,132.841,330.711,132.88,329.941L132.88,329.941z"/>
							</g>
						</g>
						<g>
							<path style="fill:#2B2C20;" d="M138.606,326.954c0.868,1.579,0.608,3.389-0.582,4.044c-1.19,0.654-2.858-0.095-3.726-1.674
								c-0.868-1.579-0.608-3.389,0.582-4.044C136.069,324.625,137.737,325.375,138.606,326.954z"/>
						</g>
					</g>
					<g>
						<g>
							<path style="fill:#2B2C20;" d="M148.049,322.259c0.873,2.001,2.02,3.856,3.436,5.519c1.149,1.35,4.393,3.76,2.699,5.78
								c-0.493,0.588,0.351,1.441,0.848,0.849c1.599-1.906,0.402-4.179-1.068-5.733c-2.015-2.129-3.699-4.314-4.88-7.02
								C148.777,320.947,147.743,321.557,148.049,322.259L148.049,322.259z"/>
						</g>
					</g>
					<g>
						<g>
							<path style="fill:#2B2C20;" d="M127.644,323.294c0.228-3.344,3.789-6.664,7.224-6.168c1.989,0.287,2.333-2.814,0.346-3.101
								c-5.058-0.73-10.33,3.931-10.671,8.923C124.407,324.946,127.507,325.303,127.644,323.294L127.644,323.294z"/>
						</g>
					</g>
					<g>
						<g>
							<path style="fill:#2B2C20;" d="M159.907,305.329c-4.977-0.776-10.591,3.452-10.989,8.522
								c-0.157,2.007,2.958,2.189,3.115,0.188c0.273-3.486,4.421-6.104,7.686-5.594c0.839,0.131,1.596-0.68,1.652-1.464
								C161.435,306.073,160.735,305.458,159.907,305.329L159.907,305.329z"/>
						</g>
					</g>
				</g>
			</g>
		</g>
	</g>
	<g>
		<g>
			
				<ellipse transform="matrix(0.9649 -0.2625 0.2625 0.9649 -53.7974 52.937)" style="fill:#E2B292;" cx="171.265" cy="227.853" rx="33.162" ry="21.846"/>
		</g>
		<g>
			<g>
				<g>
					<path style="fill:#2B2C20;" d="M158.198,233.233c0,0-0.921,10.421,1.51,11.965c3.599,2.287,3.794-11.865,3.794-11.865
						L158.198,233.233z"/>
				</g>
				<g>
					<path style="fill:#435C8B;" d="M147.022,215.244l11.072,18.788c0,0,2.41,2.524,5.44-0.64l0.321-20.719L147.022,215.244z"/>
				</g>
			</g>
			<g>
				<g>
					<path style="fill:#2B2C20;" d="M186.187,223.47c0,0,8.599,7.597,8.009,10.884c-0.873,4.867-11.784-6.338-11.784-6.338
						L186.187,223.47z"/>
				</g>
				<g>
					<path style="fill:#435C8B;" d="M180.613,199.608l6.258,24.417c0,0,0.171,4.056-4.437,4.066l-16-16.375L180.613,199.608z"/>
				</g>
			</g>
			<g>
				<path style="fill:#FDF2F0;" d="M131.852,146.593c0,0-20.33,14.159-32.9,28.108c-12.57,13.949,7.727,24.089,31.62,39.733
					c26.606,17.421,50.657-4.968,54.645-8.804c6.605-6.352,19.655-54.746,13.38-63.589
					C192.321,133.198,157.911,134.746,131.852,146.593z"/>
			</g>
			<g style="opacity:0.5;">
				<path style="fill:#E2B292;" d="M168.781,209.17c0,0-21.829,2.333-21.788-5.491c0.059-11.215,19.343-5.406,19.343-5.406
					s5.658-13.022,15.676-10.189C191.54,190.778,168.781,209.17,168.781,209.17z"/>
			</g>
			<g>
				<g>
					<path style="fill:#C4A483;" d="M123.989,159.909c5.728,10.651,12.907,22.065,25.228,25.64
						c5.448,1.581,11.514,1.417,16.507-1.476c4.845-2.807,8.091-7.724,9.861-12.939c2.576-7.591,1.982-15.801,1.423-23.66
						c-0.028-0.398-0.653-0.402-0.624,0c0.845,11.877,1.507,26.687-9.076,34.79c-4.669,3.575-10.723,4.354-16.363,3.085
						c-5.821-1.309-10.869-4.58-14.975-8.841c-4.752-4.932-8.218-10.92-11.442-16.915
						C124.338,159.24,123.799,159.555,123.989,159.909L123.989,159.909z"/>
				</g>
			</g>
			<g>
				<g>
					<path style="fill:#CE612E;" d="M268.553,165.766c0,0,11.232,4.764,11.611,2.748c0.378-2.016-4.177-3.44-3.824-4.208
						c0.353-0.768,11.136-2.152,11.29-3.58c0.1-0.93-8.732-1.157-8.732-1.157s10.961-1.699,11.226-3.11
						c0.265-1.411-12.032-0.38-12.032-0.38s9.223-2.443,9.689-3.816c0.466-1.373-10.167,0.804-10.167,0.804s6.175-1.878,5.997-3.048
						c-0.111-0.731-13.216,1.484-17.475,5.276C261.877,159.087,263.022,164.102,268.553,165.766z"/>
				</g>
				<g>
					<path style="fill:#FDF2F0;" d="M187.938,137.157c0,0,12.268-2.225,46.598,5.752c20.022,4.652,30.978,12.211,30.978,12.211
						c4.58,3.084,4.078,8.094,0.85,9.667c0,0-28.959-3.286-41.965-3.975c-15.508-0.821-36.204,2.897-36.204,2.897L187.938,137.157z"
						/>
				</g>
				<g>
					<g>
						<path style="fill:#C4A483;" d="M199.847,162.288c0.971-6.031,1.296-12.137,0.959-18.237c-0.022-0.399-0.646-0.402-0.624,0
							c0.334,6.043,0.025,12.096-0.937,18.071C199.182,162.515,199.783,162.684,199.847,162.288L199.847,162.288z"/>
					</g>
				</g>
			</g>
			<g>
				<g>
					<path style="fill:#EC7A45;" d="M157.982,179.024c-4.399,0.932-8.549,0.005-12.298-1.905
						c-8.999-4.58-15.582-16.129-17.817-19.892l43.894-10.609C171.761,146.617,176.557,175.092,157.982,179.024z"/>
				</g>
				<g>
					<path style="fill:#2B2C20;" d="M171.761,146.617c0,0,0,25.795-24.142,30.213c-0.658,0.12-1.301,0.219-1.934,0.288
						c-8.999-4.58-15.582-16.129-17.817-19.892L171.761,146.617z"/>
				</g>
			</g>
			<g>
				<path style="fill:#2B2C20;" d="M164.896,95.235c0,0,13.314,10.193,14.562,43.894c0.68,18.352,0.208,30.58,5.617,40.981
					c0,0-14.978-2.08-17.266-14.978c-2.288-12.898,1.456-51.799-6.241-60.744C153.871,95.443,164.896,95.235,164.896,95.235z"/>
			</g>
			<g>
				<path style="fill:#FDF2F0;" d="M169.369,155.339c-3.604,0-6.537-4.426-6.537-9.865c0-5.44,2.932-9.865,6.537-9.865
					c3.604,0,6.537,4.426,6.537,9.865C175.905,150.913,172.973,155.339,169.369,155.339z M169.369,136.408
					c-3.163,0-5.737,4.067-5.737,9.065c0,4.999,2.573,9.065,5.737,9.065c3.163,0,5.737-4.067,5.737-9.065
					C175.105,140.475,172.532,136.408,169.369,136.408z"/>
			</g>
			<g>
				<g>
					<path style="fill:#EC7A45;" d="M157.457,93.068c-26.535-13.199-55.403,13.415-44.855,41.11
						c2.958,7.767,9.347,16.117,15.265,23.048c11.649,13.645,25.992,11.825,31.204,9.985c7.073-2.496,18.053-27.699,7.905-57.415
						C164.36,102.136,164.097,96.371,157.457,93.068z"/>
				</g>
				<g>
					<g>
						<path style="fill:#2B2C20;" d="M130.288,136.333c2.474-1.747,5.74-1.668,8.145,0.163c0.921,0.702,1.819-0.861,0.908-1.554
							c-2.864-2.181-7.026-2.237-9.962-0.163C128.441,135.442,129.339,137.004,130.288,136.333L130.288,136.333z"/>
					</g>
				</g>
				<g>
					<g>
						<path style="fill:#2B2C20;" d="M161.503,125.439c-3.734,0.007-7.081,2.501-8.194,6.057c-0.361,1.153,1.446,1.646,1.805,0.498
							c0.865-2.764,3.5-4.677,6.388-4.683C162.707,127.309,162.709,125.437,161.503,125.439L161.503,125.439z"/>
					</g>
				</g>
				<g style="opacity:0.3;">
					<path style="fill:#833900;" d="M136.848,142.286c0.536,1.97-1.83,4.329-5.283,5.268c-3.454,0.939-6.688,0.104-7.224-1.866
						c-0.536-1.97,1.83-4.329,5.283-5.268C133.078,139.48,136.312,140.316,136.848,142.286z"/>
				</g>
				<g style="opacity:0.3;">
					<path style="fill:#833900;" d="M169.772,133.323c0.536,1.97-1.83,4.329-5.283,5.268c-3.454,0.939-6.688,0.104-7.224-1.866
						c-0.536-1.97,1.83-4.329,5.283-5.268C166.002,130.518,169.236,131.353,169.772,133.323z"/>
				</g>
				<g>
					<g>
						<path style="fill:#BC4D1E;" d="M149.965,160.852c2.896,0.881,6.003,0.153,8.236-1.88c0.595-0.542-0.29-1.423-0.883-0.882
							c-1.909,1.738-4.558,2.308-7.021,1.559C149.527,159.414,149.198,160.619,149.965,160.852L149.965,160.852z"/>
					</g>
				</g>
				<g>
					<g>
						<path style="fill:#2B2C20;" d="M148.897,136.421c0.909,1.451,2.609,3.839,0.753,5.273c-0.61,0.472,0.245,1.315,0.848,0.849
							c2.355-1.821,0.63-4.82-0.566-6.728C149.524,135.163,148.485,135.764,148.897,136.421L148.897,136.421z"/>
					</g>
				</g>
				<g>
					<path style="fill:#FDF2F0;" d="M140.256,150.758c0,0,13.574-2.035,20.878-5.35c0,0,1.104,8.98-8.719,10.986
						C144.425,158.027,140.256,150.758,140.256,150.758z"/>
				</g>
				<g>
					<g>
						<path style="fill:#2B2C20;" d="M126.374,130.49c0.543-3.261,4.333-6.378,7.725-5.542c1.95,0.48,2.781-2.528,0.83-3.009
							c-4.925-1.214-10.735,2.739-11.564,7.721C123.038,131.625,126.044,132.47,126.374,130.49L126.374,130.49z"/>
					</g>
				</g>
				<g>
					<g>
						<path style="fill:#2B2C20;" d="M164.409,118.86c-3.361-3.706-10.404-4.071-13.906-0.359c-1.377,1.46,0.825,3.671,2.206,2.206
							c2.381-2.525,7.245-2.119,9.493,0.359C163.554,122.557,165.756,120.345,164.409,118.86L164.409,118.86z"/>
					</g>
				</g>
			</g>
			<g>
				<path style="fill:#2B2C20;" d="M122.4,90.4c-8.142,11.291,15.723,34.247,48.605,17.987c0,0,2.305-3.115-5.205-13.987
					C151.158,73.204,122.839,83.72,122.4,90.4z"/>
			</g>
			<g>
				<path style="fill:#2B2C20;" d="M104.6,99.6c-1.8,4-7.441,14.204-1.8,27.6c10.553,25.062,1.977,22.414-4.888,31.242
					c-6.976,8.971-0.837,18.676-0.837,18.676l30.793-21.766c-6.382-24.616-1.604-45.6,7.733-68.552
					C135.6,86.8,115.209,81.723,104.6,99.6z"/>
			</g>
			<g>
				<g>
					<path style="fill:#EC7A45;" d="M114.053,141.446c0.012-2.615,0.459-5.979-0.515-8.615c-1.336-0.763-6.556-3.253-8.563,3.129
						c-1.515,4.814,3.204,12.177,9.087,15.233C114.051,147.944,114.038,144.694,114.053,141.446z"/>
				</g>
				<g>
					<g>
						<path style="fill:#FDF2F0;" d="M114.034,162.619c-1.68-1.578-2.808-4.476-2.808-7.784s1.129-6.206,2.808-7.784v-1.064
							c-2.155,1.62-3.64,4.977-3.64,8.848c0,3.871,1.485,7.228,3.64,8.848V162.619z"/>
					</g>
				</g>
				<g>
					<g>
						<g>
							<path style="fill:#2B2C20;" d="M107.588,137.236c2.049,1.888,3.924,3.947,5.594,6.178c0.458,0.611,1.5,0.013,1.036-0.606
								c-1.733-2.314-3.655-4.461-5.782-6.421C107.869,135.865,107.018,136.712,107.588,137.236L107.588,137.236z"/>
						</g>
					</g>
					<g>
						<g>
							<path style="fill:#2B2C20;" d="M113.271,142.703c-0.676,0.569-1.388,1.085-2.134,1.558c-0.651,0.412-0.049,1.451,0.606,1.036
								c0.832-0.527,1.624-1.111,2.377-1.745C114.712,143.054,113.859,142.209,113.271,142.703L113.271,142.703z"/>
						</g>
					</g>
				</g>
			</g>
			<g>
				<g>
					<path style="fill:#CE612E;" d="M48.662,247.509c0,0-6.289,10.455-7.78,9.046c-1.491-1.409,1.359-5.238,0.622-5.652
						c-0.737-0.415-10.275,4.802-11.239,3.738c-0.628-0.694,6.385-6.067,6.385-6.067s-9.867,5.066-10.911,4.08
						c-1.043-0.986,9.512-7.378,9.512-7.378s-8.898,3.443-10.082,2.606c-1.184-0.837,8.7-5.324,8.7-5.324s-6.1,2.109-6.644,1.058
						c-0.34-0.657,11.566-6.565,17.24-6C50.14,238.182,52.159,242.913,48.662,247.509z"/>
				</g>
				<g>
					<path style="fill:#FDF2F0;" d="M97.08,176.989c0,0-11.233,5.409-34.324,32.036c-13.467,15.53-17.89,28.084-17.89,28.084
						c-1.894,5.186,1.456,8.945,4.993,8.321c0,0,21.501-19.676,31.62-27.876c12.066-9.777,30.996-18.93,30.996-18.93L97.08,176.989z
						"/>
				</g>
				<g>
					<g>
						<path style="fill:#C4A483;" d="M109.265,200.227c-4.707-2.186-8.964-5.182-12.606-8.879c-0.282-0.287-0.724,0.155-0.441,0.441
							c3.677,3.732,7.98,6.77,12.732,8.977C109.312,200.934,109.63,200.396,109.265,200.227L109.265,200.227z"/>
					</g>
				</g>
			</g>
		</g>
	</g>
	<g>
		<g>
			
				<ellipse transform="matrix(0.2625 -0.9649 0.9649 0.2625 -150.5038 635.3742)" style="fill:#E2B292;" cx="340.383" cy="416.14" rx="21.846" ry="33.162"/>
		</g>
		<g>
			<g>
				<path style="fill:#EC7A45;" d="M322.573,327.624c0,0-30.996-3.12-39.941,2.288c-15.454,9.344,24.131,44.934,30.58,46.806
					l7.17,3.921c0,0-20.9-30.964-17.363-30.548c1.461,0.172,18.514,3.745,18.514,3.745L322.573,327.624z"/>
			</g>
			<g>
				<g>
					<path style="fill:#BC4D1E;" d="M302.376,349.885c-2.646-0.735-5.365-0.942-8.092-0.606c-0.393,0.048-0.398,0.673,0,0.624
						c2.673-0.33,5.329-0.138,7.926,0.584C302.598,350.595,302.763,349.993,302.376,349.885L302.376,349.885z"/>
				</g>
			</g>
			<g>
				<g>
					<path style="fill:#EC7A45;" d="M398.182,383.811l-13.652,23.337l-5.157-3.039l1.973-16.698
						C381.345,387.411,387.764,376.918,398.182,383.811z"/>
				</g>
				<g>
					<path style="fill:#EC7A45;" d="M379.502,406.914c0,0,2.007,11.22,3.777,10.487s0.559-5.024,1.34-5.14
						c0.781-0.116,7.369,7.614,8.564,7.006c0.779-0.396-3.552-7.423-3.552-7.423s6.925,7.709,8.164,7.196
						c1.239-0.513-5.845-9.608-5.845-9.608s6.619,5.969,7.931,5.633c1.312-0.336-5.82-7.544-5.82-7.544s6.18,3.28,6.097,2.178
						c-0.073-0.969-8.559-8.625-13.699-10.021C381.319,398.282,377.981,401.738,379.502,406.914z"/>
				</g>
			</g>
			<g>
				<path style="fill:#2B2C20;" d="M367.715,281.026c0,0-1.904-18.306,16.611-17.058c18.514,1.248,23.507,24.963,8.113,31.412
					c-15.394,6.449-24.516-12.482-24.516-12.482L367.715,281.026z"/>
			</g>
			<g>
				<g>
					<path style="fill:#EE8522;" d="M368.406,277.647c10.901-0.747,20.996,6.161,24.167,16.627c0.223,0.737,1.382,0.423,1.157-0.319
						c-3.318-10.95-13.89-18.292-25.324-17.508C367.64,276.5,367.634,277.7,368.406,277.647L368.406,277.647z"/>
				</g>
			</g>
			<g>
				<g>
					<path style="fill:#2B2C20;" d="M325.654,419.316c0,0-3.571,7.553-3.503,8.817c0.263,4.938,7.926-8.277,7.926-8.277
						L325.654,419.316z"/>
				</g>
				<g>
					<path style="fill:#EC7A45;" d="M326.951,392.876c-0.077,6.272-0.389,16.494-1.298,26.44c0,0,0.871,1.563,4.42,0.619
						l11.454-19.823L326.951,392.876z"/>
				</g>
				<g>
					<path style="fill:#2B2C20;" d="M344.382,425.457c0,0-0.741,8.322-1.438,9.378c-2.725,4.126-2.65-11.149-2.65-11.149
						L344.382,425.457z"/>
				</g>
				<g>
					<path style="fill:#EC7A45;" d="M356.637,401.994c-3.106,5.449-8.008,14.424-12.255,23.464c0,0-1.542,0.908-4.126-1.702
						l0.147-22.894L356.637,401.994z"/>
				</g>
				<g>
					<path style="fill:#2B2C20;" d="M321.533,387.12c0,0-0.208,12.898,0.416,16.434c0.624,3.536,23.091,15.394,32.036,12.898
						c0,0,7.489-6.657,7.489-11.65C361.474,399.81,321.533,387.12,321.533,387.12z"/>
				</g>
			</g>
			<g>
				<path style="fill:#435C8B;" d="M386.417,398.786c-0.362,0.231-0.728,0.464-1.094,0.699c-1.009,0.645-2.03,1.298-3.066,1.962
					c-1.91,1.223-3.861,2.478-5.835,3.772c-1.248,0.818-2.492,1.548-3.728,2.197c-0.842,0.441-1.683,0.845-2.517,1.213
					c-24.033,10.591-44.726-8.681-48.399-12.213c-1.727-1.66-3.894-6.195-6.043-12.147c0-0.002,0-0.002,0-0.002
					c-0.337-0.938-0.676-1.91-1.013-2.915v-0.002c-1.198-3.58-2.367-7.533-3.424-11.602c-0.32-1.227-0.628-2.465-0.924-3.705
					c-0.426-1.787-0.828-3.582-1.196-5.361c-2.552-12.317-3.553-23.948-0.78-27.857c2.082-2.935,7.266-4.726,14.216-5.375
					c13.986-1.304,35.121,2.014,52.529,9.927c0,0,11.013,7.672,21.841,17.283c3.882,3.447,7.741,7.144,11.059,10.826
					C418.804,377.428,405.472,386.579,386.417,398.786z"/>
			</g>
			<g>
				<g>
					<path style="fill:#437DBA;" d="M386.987,390.54c-1.009,0.645-2.03,1.298-3.066,1.962c-1.564,0.302-3.143,0.535-4.73,0.695
						c-14.82,1.5-29.594-3.416-42.179-10.98c-9.182-5.519-17.867-12.583-24.05-21.414c-0.32-1.227-0.628-2.465-0.924-3.705
						c2.964,4.876,6.707,9.253,10.911,13.137c10.31,9.528,23.32,16.99,37.006,20.285c7.052,1.695,14.418,2.215,21.608,1.132
						C383.392,391.376,385.202,391.004,386.987,390.54z"/>
				</g>
			</g>
			<g>
				<path style="fill:#EC7A45;" d="M317.409,359.398c-2.198,2.401-5.122,2.947-8.223,1.287c-2.56-12.316-3.568-23.946-0.798-27.856
					c2.081-2.937,7.263-4.731,14.213-5.384C323.745,335.476,322.951,353.345,317.409,359.398z"/>
			</g>
			<g>
				<path style="fill:#EC7A45;" d="M386.417,398.786c-5.556-2.186-6.815-10.058-5.596-17.491
					c1.654-10.093,11.514-21.527,16.162-26.636c3.882,3.447,7.741,7.144,11.059,10.826
					C418.804,377.428,405.472,386.579,386.417,398.786z"/>
			</g>
			<g>
				<g>
					<path style="fill:#437DBA;" d="M385.322,399.485c-1.009,0.645-2.03,1.298-3.066,1.962c-1.564,0.302-3.143,0.535-4.73,0.695
						c-14.82,1.5-29.594-3.416-42.179-10.98c-9.182-5.519-17.867-12.583-24.05-21.414c-0.32-1.227-0.628-2.465-0.924-3.705
						c2.964,4.876,6.707,9.253,10.911,13.137c10.31,9.528,23.32,16.99,37.006,20.285c7.052,1.695,14.418,2.215,21.608,1.132
						C381.728,400.321,383.538,399.949,385.322,399.485z"/>
				</g>
			</g>
			<g>
				<g>
					<path style="fill:#437DBA;" d="M372.693,407.415c-0.842,0.441-1.683,0.845-2.517,1.213c-1.238-0.042-2.475-0.114-3.711-0.218
						c-19.245-1.606-37.397-10.31-50.731-24.141c0-0.002,0-0.002,0-0.002c-0.337-0.938-0.676-1.91-1.013-2.915
						c2.914,3.256,6.093,6.268,9.509,8.999C337.98,401.345,355.227,407.303,372.693,407.415z"/>
				</g>
			</g>
			<g>
				<g>
					<path style="fill:#EC7A45;" d="M349.011,369.808c4.399,0.932,8.549,0.005,12.298-1.905c8.999-4.58,15.582-16.129,17.817-19.892
						l-43.893-10.609C335.232,337.402,330.436,365.876,349.011,369.808z"/>
				</g>
				<g>
					<path style="fill:#2B2C20;" d="M335.232,337.402c0,0,0,25.795,24.142,30.213c0.658,0.12,1.301,0.219,1.934,0.288
						c8.999-4.58,15.582-16.129,17.817-19.892L335.232,337.402z"/>
				</g>
			</g>
			<g>
				<g>
					<g>
						<g>
							<path style="fill:#EC7A45;" d="M339.423,309.526c0,0-1.872-7.281-6.657-2.912c-4.785,4.369-2.404,16.434,3.375,20.179
								C341.92,330.537,339.423,309.526,339.423,309.526z"/>
						</g>
					</g>
					<g>
						<g>
							<path style="fill:#2B2C20;" d="M333.809,309.779c1.488,3.921,1.812,8.089,0.839,12.175c-0.134,0.563,0.733,0.803,0.868,0.239
								c1.008-4.237,0.705-8.584-0.839-12.654C334.474,309.003,333.603,309.236,333.809,309.779L333.809,309.779z"/>
						</g>
					</g>
					<g>
						<circle style="fill:#FDF2F0;" cx="333.079" cy="324.4" r="4.681"/>
					</g>
				</g>
				<g>
					<g>
						<g>
							<path style="fill:#EC7A45;" d="M391.736,326.996c0,0,5.95-4.595,7.042,1.791c1.092,6.386-8.199,14.444-15.059,13.849
								C376.859,342.041,391.736,326.996,391.736,326.996z"/>
						</g>
					</g>
					<g>
						<g>
							<path style="fill:#2B2C20;" d="M395.514,329.895c-3.71,2.251-6.652,5.484-8.45,9.441c-0.238,0.523,0.538,0.981,0.777,0.454
								c1.738-3.823,4.539-6.942,8.127-9.119C396.463,330.372,396.011,329.594,395.514,329.895L395.514,329.895z"/>
						</g>
					</g>
					<g>
						<path style="fill:#FDF2F0;" d="M392.054,340.626c0,2.585-2.095,4.681-4.68,4.681c-2.585,0-4.681-2.096-4.681-4.681
							c0-2.585,2.095-4.681,4.681-4.681C389.959,335.945,392.054,338.041,392.054,340.626z"/>
					</g>
				</g>
				<g>
					<g>
						<path style="fill:#EC7A45;" d="M349.535,283.853c26.535-13.199,55.403,13.415,44.855,41.11
							c-2.958,7.767-9.347,16.117-15.265,23.048c-11.649,13.645-25.992,11.825-31.204,9.985
							c-7.073-2.496-18.053-27.699-7.905-57.415C342.633,292.92,342.896,287.155,349.535,283.853z"/>
					</g>
					<g>
						<g>
							<path style="fill:#2B2C20;" d="M376.777,295.496c-9.956,10.548-24.68,15.568-39.011,13.222
								c-0.755-0.124-1.08,1.033-0.319,1.157c11.58,1.895,23.604-0.745,33.221-7.504c2.518-1.769,4.846-3.79,6.958-6.027
								C378.156,295.783,377.309,294.933,376.777,295.496L376.777,295.496z"/>
						</g>
					</g>
					<g>
						<g>
							<g>
								<path style="fill:#2B2C20;" d="M367.304,323.635c2.478-1.191,6.107-0.309,7.218,2.381c0.135,0.328,0.382,0.473,0.738,0.419
									c1.144-0.173,2.288-0.347,3.432-0.52c0.761-0.115,0.438-1.272-0.319-1.157c-1.144,0.173-2.288,0.347-3.432,0.52
									c0.246,0.14,0.492,0.279,0.738,0.419c-1.421-3.441-5.742-4.655-8.98-3.098C366.003,322.933,366.611,323.968,367.304,323.635
									L367.304,323.635z"/>
							</g>
						</g>
						<g>
							<path style="fill:#2B2C20;" d="M368.583,325.223c-0.395,1.758,0.359,3.425,1.684,3.722c1.325,0.297,2.718-0.887,3.113-2.646
								c0.395-1.758-0.36-3.425-1.684-3.722C370.372,322.28,368.978,323.465,368.583,325.223z"/>
						</g>
					</g>
					<g>
						<g>
							<g>
								<path style="fill:#2B2C20;" d="M354.341,318.334c-2.176-2.843-6.575-3.757-9.407-1.325c0.242-0.031,0.485-0.063,0.727-0.094
									c-0.943-0.67-1.886-1.34-2.829-2.01c-0.631-0.448-1.231,0.592-0.606,1.036c0.943,0.67,1.886,1.34,2.829,2.01
									c0.227,0.161,0.537,0.07,0.727-0.094c2.196-1.886,5.836-1.122,7.522,1.082C353.768,319.544,354.811,318.947,354.341,318.334
									L354.341,318.334z"/>
							</g>
						</g>
						<g>
							<path style="fill:#2B2C20;" d="M352.101,320.158c-0.395,1.758-1.788,2.943-3.113,2.645c-1.325-0.297-2.079-1.964-1.684-3.722
								c0.395-1.758,1.788-2.943,3.113-2.645C351.741,316.733,352.495,318.4,352.101,320.158z"/>
						</g>
					</g>
					<g>
						<path style="fill:#2B2C20;" d="M342.128,304.534c0,0-1.589,13.306-6.203,18.823c0,0-1.303-16.743,1.211-20.487
							C339.649,299.125,342.128,304.534,342.128,304.534z"/>
					</g>
					<g>
						<path style="fill:#2B2C20;" d="M390.39,320.967c0,0-4.834,8.932-2.937,16.428c0,0,6.689-7.275,7.414-12.995
							C395.591,318.679,390.39,320.967,390.39,320.967z"/>
					</g>
					<g style="opacity:0.5;">
						<path style="fill:#BC4D1E;" d="M368.896,333.07c-0.536,1.97,1.83,4.329,5.283,5.268c3.454,0.939,6.688,0.104,7.224-1.866
							c0.536-1.97-1.83-4.329-5.283-5.268C372.666,330.265,369.432,331.1,368.896,333.07z"/>
					</g>
					<g style="opacity:0.5;">
						<path style="fill:#BC4D1E;" d="M335.972,324.107c-0.536,1.97,1.83,4.329,5.283,5.268c3.454,0.939,6.688,0.104,7.224-1.866
							c0.536-1.97-1.83-4.329-5.283-5.268C339.742,321.302,336.508,322.137,335.972,324.107z"/>
					</g>
					<g>
						<path style="fill:#2B2C20;" d="M377.284,291.22c0,0-7.823,22.762,17.058,34.116c0,0,9.569-14.978-2.496-32.244
							C379.781,275.826,377.284,291.22,377.284,291.22z"/>
					</g>
					<g>
						<path style="fill:#FDF2F0;" d="M366.259,341.354c-7.905-2.288-12.274-3.745-18.986-5.875c0,0-0.361,9.203,6.92,11.492
							C360.307,348.892,366.259,341.354,366.259,341.354z"/>
					</g>
					<g>
						<g>
							<path style="fill:#BC4D1E;" d="M356.547,350.496c-2.134,0.983-5.17,0.056-6.391-1.968c-0.415-0.687-1.494-0.06-1.078,0.63
								c1.597,2.646,5.34,3.686,8.099,2.415C357.905,351.238,357.272,350.162,356.547,350.496L356.547,350.496z"/>
						</g>
					</g>
					<g>
						<g>
							<path style="fill:#2B2C20;" d="M358.252,326.489c-0.786,1.139-2.312,1.748-2.765,3.13c-0.421,1.283-0.079,2.868,1.007,3.708
								c0.604,0.467,1.459-0.377,0.849-0.849c-1.032-0.798-1.077-2.289-0.211-3.219c0.699-0.751,1.568-1.312,2.157-2.165
								C359.728,326.458,358.688,325.857,358.252,326.489L358.252,326.489z"/>
						</g>
					</g>
					<g>
						<g>
							<path style="fill:#2B2C20;" d="M380.619,321.275c-0.543-3.262-4.333-6.378-7.725-5.542c-1.95,0.48-2.782-2.528-0.83-3.009
								c4.925-1.214,10.735,2.739,11.564,7.721C383.955,322.409,380.948,323.254,380.619,321.275L380.619,321.275z"/>
						</g>
					</g>
					<g>
						<g>
							<path style="fill:#2B2C20;" d="M342.583,309.644c3.361-3.706,10.405-4.071,13.906-0.359c1.377,1.46-0.825,3.671-2.206,2.206
								c-2.381-2.525-7.245-2.119-9.493,0.359C343.438,313.341,341.237,311.129,342.583,309.644L342.583,309.644z"/>
						</g>
					</g>
				</g>
				<g>
					<path style="fill:#2B2C20;" d="M383.286,282.899c7.619,5.86-8.914,22.883-45.11,23.923c0,0-3.953-8.945,2.049-18.722
						C351.499,269.732,381.205,279.154,383.286,282.899z"/>
				</g>
				<g>
					<path style="fill:#FDF2F0;" d="M346.292,333.233c-6.073,0-11.013-4.94-11.013-11.013c0-6.073,4.94-11.013,11.013-11.013
						c6.073,0,11.013,4.941,11.013,11.013C357.305,328.292,352.365,333.233,346.292,333.233z M346.292,312.006
						c-5.632,0-10.213,4.582-10.213,10.213c0,5.632,4.582,10.213,10.213,10.213c5.631,0,10.213-4.582,10.213-10.213
						C356.505,316.588,351.924,312.006,346.292,312.006z"/>
				</g>
				<g>
					<path style="fill:#FDF2F0;" d="M372.426,340.194c-6.073,0-11.013-4.94-11.013-11.013c0-6.073,4.94-11.013,11.013-11.013
						c6.073,0,11.013,4.941,11.013,11.013C383.439,335.254,378.498,340.194,372.426,340.194z M372.426,318.968
						c-5.632,0-10.213,4.582-10.213,10.213c0,5.631,4.582,10.213,10.213,10.213c5.631,0,10.213-4.582,10.213-10.213
						C382.639,323.549,378.057,318.968,372.426,318.968z"/>
				</g>
				<g>
					<g>
						<path style="fill:#FDF2F0;" d="M356.675,324.625c1.963-0.419,3.944,0.191,5.345,1.623c0.271,0.276,0.695-0.148,0.424-0.424
							c-1.556-1.59-3.757-2.241-5.929-1.777C356.138,324.127,356.298,324.706,356.675,324.625L356.675,324.625z"/>
					</g>
				</g>
				<g>
					<g>
						<path style="fill:#FDF2F0;" d="M382.82,333.051c3.834-2.732,7.879-5.142,12.106-7.213c0.347-0.17,0.043-0.688-0.303-0.518
							c-4.228,2.071-8.272,4.481-12.106,7.213C382.206,332.755,382.505,333.275,382.82,333.051L382.82,333.051z"/>
					</g>
				</g>
			</g>
			<g>
				<path style="fill:#EC7A45;" d="M312.172,372.974c0,0-0.832,5.617,0.416,7.073s4.577,6.449,5.825,6.657
					c1.248,0.208-1.619-4.201-1.849-6.053C316.333,378.799,312.172,372.974,312.172,372.974z"/>
			</g>
			<g>
				<path style="fill:#EC7A45;" d="M313.411,380.366c0,0-0.346,5.743,1.116,6.984s5.537,5.646,6.802,5.654
					c1.265,0.008-2.261-3.892-2.782-5.685C318.028,385.526,313.411,380.366,313.411,380.366z"/>
			</g>
		</g>
	</g>
</g>
</svg>
