<svg xmlns="http://www.w3.org/2000/svg" xmlns:xlink="http://www.w3.org/1999/xlink" viewBox="0 0 26 26" fill="#5B5B5B">
  <path d="M21.5 0C20.121094 0 19 1.121094 19 2.5C19 2.628906 19.011719 2.75 19.03125 2.875C12.988281 1.046875 10.40625 8.417969 8.46875 9.84375C6.695313 11.148438 1.890625 9.84375 1.21875 12.90625C0.0742188 14.910156 3.667969 19.136719 9.28125 22.4375C9.859375 23.9375 11.296875 25 13 25C13.402344 25 13.789063 24.921875 14.15625 24.8125C16.21875 25.589844 18.09375 26 19.53125 26C20.835938 26 21.78125 25.648438 22.1875 24.9375C23.210938 23.722656 23.5 22.523438 21.59375 19.40625C19.691406 16.296875 27.023438 9.246094 22.46875 4.8125C23.367188 4.433594 24 3.535156 24 2.5C24 1.121094 22.878906 0 21.5 0 Z M 3.875 13.46875C6.128906 13.46875 9.609375 14.679688 13 16.625C13.269531 16.78125 13.496094 16.9375 13.75 17.09375C13.507813 17.046875 13.253906 17 13 17C10.988281 17 9.347656 18.476563 9.0625 20.40625C4.394531 17.414063 2.386719 14.414063 2.59375 13.71875C2.652344 13.65625 3.03125 13.46875 3.875 13.46875 Z M 16.375 18.84375C19.605469 21.320313 20.988281 23.542969 20.8125 24.125C20.753906 24.1875 20.378906 24.375 19.53125 24.375C18.535156 24.375 17.304688 24.148438 15.9375 23.71875C16.597656 23.003906 17 22.046875 17 21C17 20.210938 16.769531 19.464844 16.375 18.84375Z" fill="#5B5B5B" />
</svg>
