<?xml version="1.0" encoding="utf-8"?>
<!-- Generator: Adobe Illustrator 27.5.0, SVG Export Plug-In . SVG Version: 6.00 Build 0)  -->
<svg version="1.1" xmlns="http://www.w3.org/2000/svg" xmlns:xlink="http://www.w3.org/1999/xlink" x="0px" y="0px"
	 viewBox="0 0 500 500" style="enable-background:new 0 0 500 500;" xml:space="preserve">
<g id="BACKGROUND">
	<rect x="0.004" y="0.001" style="fill:#DFE0ED;" width="500" height="500"/>
</g>
<g id="OBJECTS">
	<g>
		<rect x="66.413" y="78.563" style="fill:#3E58C2;" width="288.087" height="202.544"/>
		<path style="fill:#FB3A50;" d="M205.444,121.18c-50.417,14.767-53.685,113.612-53.685,113.612s29.461,34.256,91.435,3.877
			l-2.544-109.671C240.65,128.997,212.563,119.095,205.444,121.18z"/>
		<path style="fill:#829BFF;" d="M375.268,312.365c0.035-0.024,0.047-0.047,0.047-0.071
			C375.315,312.129,375.304,312.165,375.268,312.365z"/>
		<path style="fill:#829BFF;" d="M272.313,281.421H128.719l7.725-24.613c5.236-16.682,19.261-29.105,36.453-32.287
			c14.316-2.65,28.765-5.304,28.765-5.304l5.261-0.811h5.499l16.495,1.859c0,0,3.788,0.712,8.594,1.78
			c11.758,2.601,21.134,11.472,24.437,23.052L272.313,281.421z"/>
		<g>
			<path style="fill:#D48868;" d="M200.708,176.787c0.821,5.595-3.049,10.797-8.644,11.618c-5.595,0.822-10.797-3.049-11.618-8.644
				c-0.821-5.595,3.049-10.797,8.644-11.618C194.684,167.322,199.886,171.192,200.708,176.787z"/>
		</g>
		<path style="fill:#D48868;" d="M194.528,177.924c1.467,10.359,4.409,10.316,7.087,16.409c2.622,5.965,8.139,9.611,15.561,12.125
			l1.352,0.458c7.853,2.659,17.336,1.404,24.273-3.213l0,0c17.444-12.87,11.899-43.046,11.899-43.046s-1.617-28.364-34.053-23.252
			C188.211,142.517,194.528,177.924,194.528,177.924z"/>
		
			<polyline style="fill:none;stroke:#1E1E1E;stroke-width:0.9147;stroke-linecap:round;stroke-linejoin:round;stroke-miterlimit:10;" points="
			186.555,173.873 194.117,179.08 187.926,181.487 		"/>
		<path style="fill:#FB3A50;" d="M189.839,159.939c28.335,10.278,71.031-2.447,71.031-2.447
			c-0.963,0.752-2.336-42.486-50.951-36.975C185.582,123.276,182.301,157.204,189.839,159.939z"/>
		<path style="fill:#D48868;" d="M197.232,182.079c-0.149,0.448-4.211,24.893-6.706,37.114c-1.152,5.642,8.424,20.446,13.258,27.46
			c1.158,1.681,3.713,1.43,4.517-0.446c3.086-7.193,9.084-21.517,10.201-26.716l5.154-30.539L197.232,182.079z"/>
		<path style="fill:none;stroke:#1E1E1E;stroke-linecap:round;stroke-miterlimit:10;" d="M240.033,128.98
			c6.102,4.133,8.585,10.285,10.121,19.533"/>
		
			<path style="fill:none;stroke:#1E1E1E;stroke-width:0.9147;stroke-linecap:round;stroke-linejoin:round;stroke-miterlimit:10;" d="
			M198.915,190.66c0,0,7.237,12.718,21.034,16.411"/>
		<path style="fill:#FFFFFF;" d="M226.163,188.617c5.165,0.692,13.741-0.114,17.699-2.46c0,0-0.953,8.87-8.453,10.325
			C228.304,197.861,226.163,188.617,226.163,188.617z"/>
		<path style="fill:#3E58C2;" d="M350.816,256.188"/>
		<rect x="66.41" y="57.893" style="fill:#FFFFFF;" width="288.128" height="21.747"/>
		<g>
			<path style="fill:#DFE0ED;" d="M339.57,68.739c0,2.035,1.65,3.686,3.686,3.686s3.686-1.65,3.686-3.686s-1.65-3.686-3.686-3.686
				S339.57,66.703,339.57,68.739z"/>
			<path style="fill:#829BFF;" d="M323.548,68.739c0,2.035,1.65,3.686,3.686,3.686c2.035,0,3.686-1.65,3.686-3.686
				s-1.65-3.686-3.686-3.686C325.199,65.053,323.548,66.703,323.548,68.739z"/>
			<path style="fill:#FB3A50;" d="M307.527,68.739c0,2.035,1.65,3.686,3.686,3.686c2.035,0,3.686-1.65,3.686-3.686
				s-1.65-3.686-3.686-3.686C309.177,65.053,307.527,66.703,307.527,68.739z"/>
		</g>
		<path style="fill:none;stroke:#1E1E1E;stroke-linecap:round;stroke-miterlimit:10;" d="M236.704,134.28
			c0,0,5.529,5.529,7.003,16.033"/>
		<path style="fill:none;stroke:#1E1E1E;stroke-linecap:round;stroke-miterlimit:10;" d="M200.669,127.602
			c0,0-31.885,18.895-41.55,88.316"/>
		<path style="fill:#1E1E1E;" d="M221.189,174.537c0,1.142-0.767,2.067-1.714,2.067s-1.714-0.926-1.714-2.067
			c0-1.141,0.767-2.067,1.714-2.067S221.189,173.396,221.189,174.537z"/>
		<path style="fill:#1E1E1E;" d="M211.477,167.183l15.668-3.576C227.145,163.607,217.403,155.673,211.477,167.183z"/>
		<path style="fill:#1E1E1E;" d="M248.223,171.626c0,1.142-0.767,2.067-1.714,2.067s-1.714-0.925-1.714-2.067
			c0-1.141,0.767-2.067,1.714-2.067S248.223,170.484,248.223,171.626z"/>
		<path style="fill:#1E1E1E;" d="M237.988,161.485l15.923,2.172C253.911,163.657,247.589,152.8,237.988,161.485z"/>
		<rect x="66.82" y="261.246" style="opacity:0.56;fill:#FFFFFF;" width="287.618" height="20.209"/>
		<g>
			
				<ellipse transform="matrix(0.9781 -0.2082 0.2082 0.9781 -48.9703 54.622)" style="fill:#FFFFFF;" cx="234.993" cy="259.941" rx="16.756" ry="16.756"/>
			<path style="fill:#1E1E1E;" d="M223.201,260.113l0.025-0.022c0.076-0.578,0.309-1.12,0.685-1.583c0,0,0.016-0.017,0.048-0.065
				l0.009-0.009c0.098-0.11,0.308-0.344,0.64-0.652c1.457-1.323,4.778-3.533,10.672-3.521c7.713,0.019,10.188,3.848,10.466,4.312
				c0.357,0.459,0.573,0.988,0.652,1.549h0.001l0.001,0.007c0,0.002,0.001,0.004,0.002,0.006h-0.001l0.112,1.157
				c0,1.083-0.878,1.96-1.96,1.96h-2.829c-1.083,0-1.96-0.878-1.96-1.96l0.009-1.172h-0.007c0.053-0.384,0.175-0.752,0.363-1.086
				c-0.85-0.42-2.792-1.218-5.174-1.225c-2.401-0.003-4.51,0.809-5.438,1.22c0.181,0.337,0.331,1.077,0.331,1.077l0.092,1.186
				c0,1.083-0.878,1.96-1.96,1.96h-2.829c-1.083,0-1.96-0.878-1.96-1.96L223.201,260.113z"/>
		</g>
		<g>
			
				<ellipse transform="matrix(0.3788 -0.9255 0.9255 0.3788 -133.3211 321.2568)" style="fill:#FFFFFF;" cx="172.648" cy="259.941" rx="16.756" ry="16.756"/>
			<path style="fill:#1E1E1E;" d="M180.19,250.969l-0.002,0.033c0.355,0.462,0.574,1.01,0.634,1.604c0,0,0,0.024,0.012,0.08
				l-0.001,0.013c0.008,0.147,0.025,0.461,0.008,0.913c-0.095,1.965-0.881,5.877-5.057,10.036c-5.467,5.441-9.925,4.483-10.45,4.351
				c-0.577-0.072-1.104-0.294-1.556-0.634l-0.001,0.001l-0.005-0.005c-0.002-0.001-0.004-0.002-0.005-0.003l0.001-0.001
				l-0.897-0.738c-0.765-0.766-0.765-2.007,0-2.772l2-2c0.766-0.766,2.007-0.765,2.772,0l0.822,0.835l0.005-0.005
				c0.234,0.308,0.408,0.655,0.511,1.024c0.898-0.304,2.836-1.113,4.525-2.793c1.7-1.695,2.617-3.761,2.983-4.708
				c-0.366-0.111-0.995-0.527-0.995-0.527l-0.904-0.773c-0.766-0.766-0.766-2.007,0-2.772l2-2c0.766-0.766,2.007-0.765,2.772,0
				L180.19,250.969z"/>
		</g>
		<path style="fill:none;stroke:#1E1E1E;stroke-linecap:round;stroke-miterlimit:10;" d="M201.609,135.676
			c0,0-10.08,8.166-19.283,27.83"/>
	</g>
	<g>
		<polygon style="fill:#FFFFFF;" points="423.369,169.064 283.295,169.064 307.887,157.831 307.887,120.709 423.369,120.709 		"/>
		<g>
			
				<line style="fill:none;stroke:#1E1E1E;stroke-linecap:round;stroke-miterlimit:10;" x1="321.082" y1="133.084" x2="409.689" y2="133.084"/>
			
				<line style="fill:none;stroke:#1E1E1E;stroke-linecap:round;stroke-miterlimit:10;" x1="321.082" y1="144.225" x2="409.689" y2="144.225"/>
			
				<line style="fill:none;stroke:#1E1E1E;stroke-linecap:round;stroke-miterlimit:10;" x1="321.082" y1="155.365" x2="379.124" y2="155.365"/>
		</g>
	</g>
	<g>
		<g>
			<path style="fill:#F0F1FF;" d="M120.417,302.61c-12.325,0-22.323,9.997-22.323,22.329c0,12.332,9.997,22.329,22.323,22.329
				c12.332,0,22.329-9.997,22.329-22.329C142.747,312.607,132.749,302.61,120.417,302.61z M120.417,341.283
				c-9.006,0-16.336-7.33-16.336-16.343c0-9.013,7.33-16.343,16.336-16.343c9.013,0,16.343,7.33,16.343,16.343
				C136.761,333.953,129.431,341.283,120.417,341.283z"/>
			<path style="fill:#F0F1FF;" d="M122.502,298.938h-4.578c-0.911,0-1.649,0.738-1.649,1.649v6.112h7.876v-6.112
				C124.151,299.676,123.413,298.938,122.502,298.938z"/>
			<path style="fill:#F0F1FF;" d="M103.483,304.731l-3.237,3.237c-0.644,0.644-0.644,1.688,0,2.332l4.322,4.322l5.569-5.569
				l-4.322-4.322C105.171,304.087,104.127,304.087,103.483,304.731z"/>
			<path style="fill:#F0F1FF;" d="M94.13,322.636v4.578c0,0.911,0.738,1.649,1.649,1.649h6.112v-7.876H95.78
				C94.869,320.987,94.13,321.725,94.13,322.636z"/>
			<path style="fill:#F0F1FF;" d="M100.178,341.911l3.237,3.237c0.644,0.644,1.688,0.644,2.332,0l4.322-4.322l-5.569-5.569
				l-4.322,4.322C99.534,340.223,99.534,341.267,100.178,341.911z"/>
			<path style="fill:#F0F1FF;" d="M118.084,351.263h4.578c0.911,0,1.649-0.738,1.649-1.649v-6.113h-7.876v6.113
				C116.435,350.525,117.173,351.263,118.084,351.263z"/>
			<path style="fill:#F0F1FF;" d="M137.358,345.215l3.237-3.237c0.644-0.644,0.644-1.688,0-2.332l-4.322-4.322l-5.569,5.569
				l4.322,4.322C135.67,345.859,136.714,345.859,137.358,345.215z"/>
			<path style="fill:#F0F1FF;" d="M146.711,327.31v-4.578c0-0.911-0.738-1.649-1.649-1.649h-6.113v7.876h6.113
				C145.973,328.959,146.711,328.22,146.711,327.31z"/>
			<path style="fill:#F0F1FF;" d="M140.663,308.035l-3.237-3.237c-0.644-0.644-1.688-0.644-2.332,0l-4.322,4.322l5.569,5.569
				l4.322-4.322C141.307,309.723,141.307,308.679,140.663,308.035z"/>
		</g>
		<g>
			<path style="fill:#F0F1FF;" d="M394.857,47.16c-8.686,0-15.732,7.046-15.732,15.737s7.046,15.737,15.732,15.737
				c8.691,0,15.737-7.046,15.737-15.737S403.549,47.16,394.857,47.16z M394.857,74.415c-6.347,0-11.513-5.166-11.513-11.518
				s5.166-11.518,11.513-11.518c6.352,0,11.518,5.166,11.518,11.518S401.21,74.415,394.857,74.415z"/>
			<path style="fill:#F0F1FF;" d="M396.327,44.572h-3.226c-0.642,0-1.162,0.52-1.162,1.162v4.308h5.551v-4.308
				C397.489,45.092,396.969,44.572,396.327,44.572z"/>
			<path style="fill:#F0F1FF;" d="M382.922,48.654l-2.281,2.281c-0.454,0.454-0.454,1.19,0,1.644l3.046,3.046l3.925-3.925
				l-3.046-3.046C384.112,48.201,383.376,48.201,382.922,48.654z"/>
			<path style="fill:#F0F1FF;" d="M376.331,61.274V64.5c0,0.642,0.52,1.162,1.162,1.162h4.308v-5.551h-4.308
				C376.851,60.112,376.331,60.632,376.331,61.274z"/>
			<path style="fill:#F0F1FF;" d="M380.594,74.858l2.281,2.281c0.454,0.454,1.19,0.454,1.644,0l3.046-3.046l-3.925-3.925
				l-3.046,3.046C380.14,73.668,380.14,74.404,380.594,74.858z"/>
			<path style="fill:#F0F1FF;" d="M393.213,81.449h3.226c0.642,0,1.162-0.52,1.162-1.162v-4.308h-5.551v4.308
				C392.051,80.929,392.571,81.449,393.213,81.449z"/>
			<path style="fill:#F0F1FF;" d="M406.797,77.187l2.281-2.281c0.454-0.454,0.454-1.19,0-1.644l-3.046-3.046l-3.925,3.925
				l3.046,3.046C405.607,77.641,406.343,77.641,406.797,77.187z"/>
			<path style="fill:#F0F1FF;" d="M413.388,64.567v-3.226c0-0.642-0.52-1.162-1.162-1.162h-4.308v5.551h4.308
				C412.868,65.73,413.388,65.209,413.388,64.567z"/>
			<path style="fill:#F0F1FF;" d="M409.126,50.983l-2.281-2.281c-0.454-0.454-1.19-0.454-1.644,0l-3.046,3.046l3.925,3.925
				l3.046-3.046C409.58,52.173,409.58,51.437,409.126,50.983z"/>
		</g>
	</g>
	<g>
		<defs>
			<rect id="SVGID_1_" width="500" height="500"/>
		</defs>
		<clipPath id="SVGID_00000055700683070435154360000002651960859812414868_">
			<use xlink:href="#SVGID_1_"  style="overflow:visible;"/>
		</clipPath>
		<g style="clip-path:url(#SVGID_00000055700683070435154360000002651960859812414868_);">
			<ellipse style="fill:#FB3A50;" cx="452.793" cy="424.704" rx="114.35" ry="129.921"/>
			<path style="fill:#1E1E1E;" d="M342.61,221.224c0,0,0.492-0.571,1.461-1.512c5.536-5.372,26.646-22.784,60.752-14.639
				c40.08,9.571,21.586,57.203,12.886,67.036C409.011,281.942,342.61,221.224,342.61,221.224z"/>
			<path style="fill:#829BFF;" d="M324.398,394.233l193.991,36.399l-28.147-68.265c-11.647-27.5-26.696-32.236-47.212-36.033
				c-17.083-3.162-34.326-6.329-34.326-6.329l-6.278-0.968h-6.561l-19.684,2.219c0,0-4.52,0.85-10.255,2.124
				c-14.031,3.104-22.988,7.928-29.16,27.508L324.398,394.233z"/>
			<g>
				<path style="fill:#946049;" d="M409.846,269.373c-0.98,6.677,3.638,12.884,10.315,13.864c6.677,0.98,12.884-3.638,13.864-10.315
					c0.98-6.677-3.638-12.884-10.315-13.864C417.033,258.078,410.826,262.696,409.846,269.373z"/>
			</g>
			<path style="fill:#946049;" d="M417.22,270.729c-1.751,12.362-5.261,12.311-8.457,19.581c-3.129,7.118-9.712,11.47-18.569,14.469
				l-1.613,0.546c-9.371,3.173-20.687,1.675-28.965-3.834l0,0c-20.816-15.358-14.199-51.367-14.199-51.367
				s1.929-33.847,40.635-27.747C424.758,228.478,417.22,270.729,417.22,270.729z"/>
			
				<polyline style="fill:none;stroke:#1E1E1E;stroke-width:0.9147;stroke-linecap:round;stroke-linejoin:round;stroke-miterlimit:10;" points="
				426.734,265.895 417.71,272.108 425.098,274.981 			"/>
			<path style="fill:#946049;" d="M413.671,341.176l-12.43-13.318l-7.404,7.547c-2.435-6.129-4.554-11.972-5.227-15.079
				l-1.547-9.151l-4.597-27.28l31.519-8.206c0.143,0.43,3.294,19.247,6.057,34.212c0.688,3.709,1.361,7.189,1.948,10.082
				C422.879,324.321,418.454,333.171,413.671,341.176z"/>
			
				<path style="fill:none;stroke:#1E1E1E;stroke-width:0.9147;stroke-linecap:round;stroke-linejoin:round;stroke-miterlimit:10;" d="
				M411.984,285.927c0,0-8.637,15.177-25.1,19.584"/>
			<path style="fill:#FFFFFF;" d="M379.469,283.489c-6.163,0.826-16.398-0.136-21.121-2.935c0,0,1.137,10.584,10.087,12.321
				C376.914,294.52,379.469,283.489,379.469,283.489z"/>
			<path style="fill:#1E1E1E;" d="M385.405,266.688c0,1.362,0.916,2.466,2.045,2.466c1.13,0,2.046-1.104,2.046-2.466
				c0-1.362-0.916-2.467-2.046-2.467C386.321,264.221,385.405,265.325,385.405,266.688z"/>
			<path style="fill:#1E1E1E;" d="M396.995,257.912l-18.697-4.267C378.298,253.645,389.922,244.176,396.995,257.912z"/>
			<path style="fill:#1E1E1E;" d="M353.145,263.214c0,1.362,0.916,2.467,2.046,2.467c1.13,0,2.045-1.104,2.045-2.467
				c0-1.362-0.916-2.467-2.045-2.467C354.061,260.747,353.145,261.851,353.145,263.214z"/>
			<path style="fill:#1E1E1E;" d="M365.359,251.113l-19.001,2.592C346.358,253.705,353.902,240.749,365.359,251.113z"/>
			<path style="fill:#1E1E1E;" d="M417.522,219.28c0.133,0.781-48.213,25.285-73.15,21.182
				c-19.457-3.202-20.229-28.971-18.965-28.57C345.603,218.295,410.046,175.501,417.522,219.28z"/>
			<path style="fill:#1E1E1E;" d="M415.397,263.007c-0.516,0.602-6.248-27.471-19.302-36.092c0,0,5.68-12.905,16.446-4.775
				C423.306,230.269,420.67,256.855,415.397,263.007z"/>
			<polygon style="fill:#FFFFFF;" points="432.546,323.576 417.122,344.885 413.671,341.176 401.241,327.858 400.954,327.543 
				401.427,327.113 420.044,309.9 420.359,309.614 			"/>
			<polygon style="fill:#FFFFFF;" points="401.685,327.4 401.241,327.858 393.837,335.405 387.135,342.236 376.18,321.256 
				386.992,311.089 387.064,311.175 401.427,327.113 			"/>
			<polygon style="fill:#829BFF;" points="245.729,365.063 278.342,442.318 369.875,438.563 336.884,407.173 274.388,347.782 			"/>
			<polygon style="fill:#F0F1FF;" points="500.004,425.361 500.004,500.001 142.525,500.001 142.714,425.361 			"/>
			<path style="fill:#FB3A50;" d="M406.861,478.315h-79.597c-2.199,0-4.165-1.373-4.922-3.438l-40.986-111.825
				c-1.254-3.421,1.279-7.046,4.922-7.046h76.067c4.32,0,8.18,2.697,9.667,6.752l39.771,108.511
				C413.036,474.69,410.504,478.315,406.861,478.315z"/>
			<path style="fill:#829BFF;" d="M441.22,376.939c1.458,0.486,12.746,35.516,12.746,35.516l-44.018-17.824l-1.233,6.472
				l4.926,45.238l54.133,20.447c21.614,7.532,42.963-11.919,37.471-34.139l-9.496-38.415L441.22,376.939z"/>
			<path style="fill:#946049;" d="M387.484,399.673l14.634,2.236l10.438,39.477l-13.629-2.522l-30.271,7.625
				c-2.768,0.697-5.687-0.311-7.433-2.569l-4.961-6.412c-1.783-2.305-1.698-5.547,0.204-7.755L380,402.439
				C381.852,400.29,384.679,399.245,387.484,399.673z"/>
			<path style="fill:#946049;" d="M216.923,342.209l27.398,14.97l25.817-12.204l1.978-22.149c0.199-2.223-1.553-4.137-3.784-4.137
				l0,0c-3.45,0-6.556,2.087-7.861,5.28l-2.042,4.998l-33.566-10.646c-3.06-1.347-6.605,0.317-7.523,3.531l-3.625,12.688
				C212.86,337.532,214.192,340.717,216.923,342.209z"/>
			<polygon style="fill:#FFFFFF;" points="244.321,357.179 248.109,363.631 274.191,347.782 270.479,341.574 			"/>
			
				<polyline style="fill:none;stroke:#1E1E1E;stroke-width:0.9147;stroke-linecap:round;stroke-linejoin:round;stroke-miterlimit:10;" points="
				408.811,398.332 460.908,406.923 450.101,383.923 			"/>
			
				<line style="fill:none;stroke:#1E1E1E;stroke-width:0.9147;stroke-linecap:round;stroke-linejoin:round;stroke-miterlimit:10;" x1="358.441" y1="438.803" x2="380.676" y2="416.568"/>
			
				<line style="fill:none;stroke:#1E1E1E;stroke-width:0.9147;stroke-linecap:round;stroke-linejoin:round;stroke-miterlimit:10;" x1="361.952" y1="443.456" x2="384.584" y2="429.25"/>
			
				<path style="fill:none;stroke:#1E1E1E;stroke-width:0.9147;stroke-linecap:round;stroke-linejoin:round;stroke-miterlimit:10;" d="
				M213.688,332.989c0.478,0.358,22.323,9.072,22.323,9.072"/>
			
				<line style="fill:none;stroke:#1E1E1E;stroke-width:0.9147;stroke-linecap:round;stroke-linejoin:round;stroke-miterlimit:10;" x1="215.9" y1="325.1" x2="239.297" y2="333.884"/>
			<path style="fill:#1E1E1E;" d="M338.401,357.443h-31.308c-1.087,0-2.06-0.673-2.444-1.689l0,0
				c-0.647-1.71,0.617-3.538,2.444-3.538h31.308c1.087,0,2.06,0.672,2.444,1.689l0,0
				C341.492,355.615,340.229,357.443,338.401,357.443z"/>
			<polygon style="fill:#FFFFFF;" points="402.118,401.909 405.171,440.552 412.876,441.785 408.675,401.336 			"/>
			<polygon style="fill:#FB3A50;" points="392.198,337.252 397.809,346.633 392.698,400.146 402.118,401.909 408.675,401.336 
				403.521,347.535 409.233,337.013 401.241,327.858 			"/>
		</g>
		<g style="clip-path:url(#SVGID_00000055700683070435154360000002651960859812414868_);">
			<path style="fill:#829BFF;" d="M65.775,517.557c0,0-69.851-129.429-48.622-215.031c0,0,114.364,65.742,104.776,188.323
				C121.93,490.85,99.331,548.374,65.775,517.557z"/>
			<path style="fill:#C2CEFF;" d="M103.171,543.593c0-2.452,0-134.841,79.066-204.1c0,0,39.227,125.647-13.484,186.939
				C116.043,587.723,103.171,543.593,103.171,543.593z"/>
			
				<path style="fill:none;stroke:#1E1E1E;stroke-width:0.9147;stroke-linecap:round;stroke-linejoin:round;stroke-miterlimit:10;" d="
				M35.783,340.781c0,0,53.752,92.648,68.04,161.625"/>
			
				<polyline style="fill:none;stroke:#1E1E1E;stroke-width:0.9147;stroke-linecap:round;stroke-linejoin:round;stroke-miterlimit:10;" points="
				40.256,388.141 65.515,398.666 72.619,373.67 			"/>
			
				<polyline style="fill:none;stroke:#1E1E1E;stroke-width:0.9147;stroke-linecap:round;stroke-linejoin:round;stroke-miterlimit:10;" points="
				59.164,437.607 89.201,453.399 97.252,426.149 			"/>
			
				<path style="fill:none;stroke:#1E1E1E;stroke-width:0.9147;stroke-linecap:round;stroke-linejoin:round;stroke-miterlimit:10;" d="
				M172.113,375.813c0,0-26.171,95.308-39.061,145.306"/>
			
				<polyline style="fill:none;stroke:#1E1E1E;stroke-width:0.9147;stroke-linecap:round;stroke-linejoin:round;stroke-miterlimit:10;" points="
				154.458,390.37 161.627,413.607 181.403,400.753 			"/>
			
				<polyline style="fill:none;stroke:#1E1E1E;stroke-width:0.9147;stroke-linecap:round;stroke-linejoin:round;stroke-miterlimit:10;" points="
				132.597,435.651 145.954,471.78 175.076,451.416 			"/>
		</g>
	</g>
</g>
</svg>
