
        <svg xmlns="http://www.w3.org/2000/svg" xmlns:xlink="http://www.w3.org/1999/xlink" version="1.1" width="3250" height="2112.5" viewBox="0 0 3250 2112.5">
			
			<g transform="scale(12.5) translate(10, 10)">
				<defs id="SvgjsDefs8150"/><g id="SvgjsG8151" featureKey="rootContainer" transform="matrix(1,0,0,1,0,0)" fill="#000"><rect xmlns="http://www.w3.org/2000/svg" width="240" height="149" rx="10" ry="10"/></g><g id="SvgjsG8152" featureKey="ewgXDI-0" transform="matrix(8.855207290993619,0,0,8.855207290993619,12.030312593607366,-63.41603646679107)" fill="#ffffff"><path d="M4.82 20.16 c-1.94 0 -3.92 -1.3 -3.92 -4.6 l0 -5.96 l3.16 0 l0 5.74 c0 1.58 0.54 2.08 1.54 2.08 c1.42 0 2.24 -1.38 2.44 -1.98 l0 -5.84 l3.16 0 l0 10.4 l-3.16 0 l0 -1.8 c-0.2 0.5 -1.26 1.96 -3.22 1.96 z M18.4 9.42 c2.36 0 5.66 1.78 5 6.48 l-7.26 0 c0.36 1.08 1.3 1.64 2.56 1.64 c1.28 0 1.68 -0.28 2.4 -0.58 l1.74 1.68 c-0.92 0.9 -2.16 1.56 -4.26 1.56 c-2.58 0 -5.66 -1.78 -5.66 -5.36 c0 -3.64 3.12 -5.42 5.48 -5.42 z M18.4 12.120000000000001 c-0.9 0 -1.82 0.52 -2.22 1.56 l4.42 0 c-0.32 -1.04 -1.3 -1.56 -2.2 -1.56 z"/></g><g id="SvgjsG8153" featureKey="sloganFeature-0" transform="matrix(0.29718785718059254,0,0,0.29718785718059254,39.56016196570431,123.43679222833983)" fill="#ffffff"><path d="M3.42 7.300000000000001 l0 4.42 l3.5 0 c1.86 0 3 -0.56 3 -2.32 c0 -1.34 -0.82 -2.1 -2.98 -2.1 l-3.52 0 z M1.48 20 l0 -14.36 l6.32 0 c2.68 0 4.06 1.66 4.06 3.62 c0 0.94 -0.34 2.26 -1.92 3 c0.94 0.38 2.6 1.04 2.6 3.5 c0 2.3 -1.7 4.24 -4.88 4.24 l-6.18 0 z M3.42 13.3 l0 5.04 l4.14 0 c2.02 0 3.04 -1.02 3.04 -2.62 c0 -2.02 -1.78 -2.42 -3.36 -2.42 l-3.82 0 z M20.372 13.84 l0 6.16 l-1.94 0 l0 -14.36 l6.64 0 c2.36 0 4.72 0.82 4.72 3.86 c0 2.12 -1.08 2.9 -2 3.44 c0.82 0.34 1.64 0.7 1.72 2.7 l0.12 2.6 c0.02 0.8 0.12 1.1 0.72 1.44 l0 0.32 l-2.38 0 c-0.28 -0.88 -0.34 -3.06 -0.34 -3.6 c0 -1.18 -0.24 -2.56 -2.56 -2.56 l-4.7 0 z M20.372 7.300000000000001 l0 4.88 l4.5 0 c1.42 0 2.92 -0.36 2.92 -2.48 c0 -2.22 -1.62 -2.4 -2.58 -2.4 l-4.84 0 z M46.764 18.28 l0 1.72 l-10.6 0 l0 -14.36 l10.46 0 l0 1.72 l-8.52 0 l0 4.4 l7.86 0 l0 1.72 l-7.86 0 l0 4.8 l8.66 0 z M60.656 15.82 l-5.76 0 l-1.5 4.18 l-2 0 l5.4 -14.36 l2.2 0 l5.2 14.36 l-2.12 0 z M55.496 14.1 l4.46 0 l-2.12 -6.32 l-0.04 0 z M71.24799999999999 14.96 l0 5.04 l-1.94 0 l0 -14.36 l1.94 0 l0 6.96 l6.96 -6.96 l2.68 0 l-5.98 5.8 l6.14 8.56 l-2.52 0 l-5.02 -7.2 z M88.22 5.640000000000001 l0 14.36 l-1.94 0 l0 -14.36 l1.94 0 z M104.392 17.240000000000002 l0 -11.6 l1.88 0 l0 14.36 l-2.18 0 l-7.3 -11.6 l-0.04 0 l0 11.6 l-1.88 0 l0 -14.36 l2.3 0 l7.18 11.6 l0.04 0 z M118.904 13.98 l0 -1.66 l6.3 0 l0 7.68 l-1.26 0 l-0.46 -1.86 c-0.98 1.36 -2.78 2.24 -4.74 2.24 c-2.46 0 -3.66 -0.9 -4.4 -1.62 c-2.2 -2.08 -2.26 -4.54 -2.26 -6.06 c0 -3.5 2.12 -7.44 6.8 -7.44 c2.68 0 5.66 1.52 6.08 4.74 l-1.88 0 c-0.62 -2.5 -2.72 -3.02 -4.3 -3.02 c-2.58 0 -4.7 2.06 -4.7 5.82 c0 2.92 0.96 5.92 4.78 5.92 c0.72 0 1.88 -0.08 2.94 -0.92 c1.26 -1 1.58 -2.28 1.58 -3.82 l-4.48 0 z M142.32799999999997 7.300000000000001 l0 4.42 l3.5 0 c1.86 0 3 -0.56 3 -2.32 c0 -1.34 -0.82 -2.1 -2.98 -2.1 l-3.52 0 z M140.38799999999998 20 l0 -14.36 l6.32 0 c2.68 0 4.06 1.66 4.06 3.62 c0 0.94 -0.34 2.26 -1.92 3 c0.94 0.38 2.6 1.04 2.6 3.5 c0 2.3 -1.7 4.24 -4.88 4.24 l-6.18 0 z M142.32799999999997 13.3 l0 5.04 l4.14 0 c2.02 0 3.04 -1.02 3.04 -2.62 c0 -2.02 -1.78 -2.42 -3.36 -2.42 l-3.82 0 z M165.11999999999998 15.82 l-5.76 0 l-1.5 4.18 l-2 0 l5.4 -14.36 l2.2 0 l5.2 14.36 l-2.12 0 z M159.95999999999998 14.1 l4.46 0 l-2.12 -6.32 l-0.04 0 z M175.95199999999997 13.84 l0 6.16 l-1.94 0 l0 -14.36 l6.64 0 c2.36 0 4.72 0.82 4.72 3.86 c0 2.12 -1.08 2.9 -2 3.44 c0.82 0.34 1.64 0.7 1.72 2.7 l0.12 2.6 c0.02 0.8 0.12 1.1 0.72 1.44 l0 0.32 l-2.38 0 c-0.28 -0.88 -0.34 -3.06 -0.34 -3.6 c0 -1.18 -0.24 -2.56 -2.56 -2.56 l-4.7 0 z M175.95199999999997 7.300000000000001 l0 4.88 l4.5 0 c1.42 0 2.92 -0.36 2.92 -2.48 c0 -2.22 -1.62 -2.4 -2.58 -2.4 l-4.84 0 z M193.72399999999996 13.84 l0 6.16 l-1.94 0 l0 -14.36 l6.64 0 c2.36 0 4.72 0.82 4.72 3.86 c0 2.12 -1.08 2.9 -2 3.44 c0.82 0.34 1.64 0.7 1.72 2.7 l0.12 2.6 c0.02 0.8 0.12 1.1 0.72 1.44 l0 0.32 l-2.38 0 c-0.28 -0.88 -0.34 -3.06 -0.34 -3.6 c0 -1.18 -0.24 -2.56 -2.56 -2.56 l-4.7 0 z M193.72399999999996 7.300000000000001 l0 4.88 l4.5 0 c1.42 0 2.92 -0.36 2.92 -2.48 c0 -2.22 -1.62 -2.4 -2.58 -2.4 l-4.84 0 z M211.55599999999995 5.640000000000001 l0 14.36 l-1.94 0 l0 -14.36 l1.94 0 z M229.00799999999995 18.28 l0 1.72 l-10.6 0 l0 -14.36 l10.46 0 l0 1.72 l-8.52 0 l0 4.4 l7.86 0 l0 1.72 l-7.86 0 l0 4.8 l8.66 0 z M237.05999999999995 13.84 l0 6.16 l-1.94 0 l0 -14.36 l6.64 0 c2.36 0 4.72 0.82 4.72 3.86 c0 2.12 -1.08 2.9 -2 3.44 c0.82 0.34 1.64 0.7 1.72 2.7 l0.12 2.6 c0.02 0.8 0.12 1.1 0.72 1.44 l0 0.32 l-2.38 0 c-0.28 -0.88 -0.34 -3.06 -0.34 -3.6 c0 -1.18 -0.24 -2.56 -2.56 -2.56 l-4.7 0 z M237.05999999999995 7.300000000000001 l0 4.88 l4.5 0 c1.42 0 2.92 -0.36 2.92 -2.48 c0 -2.22 -1.62 -2.4 -2.58 -2.4 l-4.84 0 z M263.13199999999995 9.84 l-1.82 0 c-0.1 -2.22 -1.94 -2.92 -3.56 -2.92 c-1.22 0 -3.28 0.34 -3.28 2.52 c0 1.22 0.86 1.62 1.7 1.82 l4.1 0.94 c1.86 0.44 3.26 1.56 3.26 3.84 c0 3.4 -3.16 4.34 -5.62 4.34 c-2.66 0 -3.7 -0.8 -4.34 -1.38 c-1.22 -1.1 -1.46 -2.3 -1.46 -3.64 l1.82 0 c0 2.6 2.12 3.36 3.96 3.36 c1.4 0 3.76 -0.36 3.76 -2.42 c0 -1.5 -0.7 -1.98 -3.06 -2.54 l-2.94 -0.68 c-0.94 -0.22 -3.06 -0.88 -3.06 -3.38 c0 -2.24 1.46 -4.44 4.94 -4.44 c5.02 0 5.52 3 5.6 4.58 z M278.57599999999996 20.38 l0 -15.12 l1.46 0 l0 15.12 l-1.46 0 z M297.53999999999996 7.300000000000001 l0 4.42 l3.5 0 c1.86 0 3 -0.56 3 -2.32 c0 -1.34 -0.82 -2.1 -2.98 -2.1 l-3.52 0 z M295.59999999999997 20 l0 -14.36 l6.32 0 c2.68 0 4.06 1.66 4.06 3.62 c0 0.94 -0.34 2.26 -1.92 3 c0.94 0.38 2.6 1.04 2.6 3.5 c0 2.3 -1.7 4.24 -4.88 4.24 l-6.18 0 z M297.53999999999996 13.3 l0 5.04 l4.14 0 c2.02 0 3.04 -1.02 3.04 -2.62 c0 -2.02 -1.78 -2.42 -3.36 -2.42 l-3.82 0 z M321.73199999999997 5.640000000000001 l1.94 0 l0 9.32 c0 2.94 -1.84 5.42 -5.78 5.42 c-3.86 0 -5.52 -2.48 -5.52 -5.16 l0 -9.58 l1.94 0 l0 9.04 c0 3.12 1.9 3.98 3.64 3.98 c1.78 0 3.78 -0.82 3.78 -3.94 l0 -9.08 z M332.32399999999996 5.640000000000001 l0 14.36 l-1.94 0 l0 -14.36 l1.94 0 z M340.91599999999994 5.640000000000001 l0 12.64 l7.28 0 l0 1.72 l-9.22 0 l0 -14.36 l1.94 0 z M353.52799999999996 20 l0 -14.36 l5.82 0 c3.74 0 6.04 2.84 6.04 6.98 c0 3.22 -1.4 7.38 -6.12 7.38 l-5.74 0 z M355.46799999999996 7.300000000000001 l0 11.04 l3.76 0 c2.52 0 4.16 -1.98 4.16 -5.6 s-1.66 -5.44 -4.3 -5.44 l-3.62 0 z M373.43999999999994 5.640000000000001 l0 14.36 l-1.94 0 l0 -14.36 l1.94 0 z M389.61199999999997 17.240000000000002 l0 -11.6 l1.88 0 l0 14.36 l-2.18 0 l-7.3 -11.6 l-0.04 0 l0 11.6 l-1.88 0 l0 -14.36 l2.3 0 l7.18 11.6 l0.04 0 z M404.1239999999999 13.98 l0 -1.66 l6.3 0 l0 7.68 l-1.26 0 l-0.46 -1.86 c-0.98 1.36 -2.78 2.24 -4.74 2.24 c-2.46 0 -3.66 -0.9 -4.4 -1.62 c-2.2 -2.08 -2.26 -4.54 -2.26 -6.06 c0 -3.5 2.12 -7.44 6.8 -7.44 c2.68 0 5.66 1.52 6.08 4.74 l-1.88 0 c-0.62 -2.5 -2.72 -3.02 -4.3 -3.02 c-2.58 0 -4.7 2.06 -4.7 5.82 c0 2.92 0.96 5.92 4.78 5.92 c0.72 0 1.88 -0.08 2.94 -0.92 c1.26 -1 1.58 -2.28 1.58 -3.82 l-4.48 0 z M437.60799999999995 9.96 l-1.88 0 c-0.54 -2.52 -2.64 -2.98 -4.02 -2.98 c-2.6 0 -4.7 1.92 -4.7 5.7 c0 3.38 1.2 5.98 4.76 5.98 c1.26 0 3.44 -0.6 4.1 -3.94 l1.88 0 c-0.8 5.42 -5.2 5.66 -6.28 5.66 c-3.26 0 -6.46 -2.12 -6.46 -7.64 c0 -4.42 2.52 -7.48 6.7 -7.48 c3.7 0 5.62 2.3 5.9 4.7 z M451.43999999999994 15.82 l-5.76 0 l-1.5 4.18 l-2 0 l5.4 -14.36 l2.2 0 l5.2 14.36 l-2.12 0 z M446.2799999999999 14.1 l4.46 0 l-2.12 -6.32 l-0.04 0 z M462.27199999999993 13.84 l0 6.16 l-1.94 0 l0 -14.36 l6.64 0 c2.36 0 4.72 0.82 4.72 3.86 c0 2.12 -1.08 2.9 -2 3.44 c0.82 0.34 1.64 0.7 1.72 2.7 l0.12 2.6 c0.02 0.8 0.12 1.1 0.72 1.44 l0 0.32 l-2.38 0 c-0.28 -0.88 -0.34 -3.06 -0.34 -3.6 c0 -1.18 -0.24 -2.56 -2.56 -2.56 l-4.7 0 z M462.27199999999993 7.300000000000001 l0 4.88 l4.5 0 c1.42 0 2.92 -0.36 2.92 -2.48 c0 -2.22 -1.62 -2.4 -2.58 -2.4 l-4.84 0 z M488.66399999999993 18.28 l0 1.72 l-10.6 0 l0 -14.36 l10.46 0 l0 1.72 l-8.52 0 l0 4.4 l7.86 0 l0 1.72 l-7.86 0 l0 4.8 l8.66 0 z M505.33599999999996 18.28 l0 1.72 l-10.6 0 l0 -14.36 l10.46 0 l0 1.72 l-8.52 0 l0 4.4 l7.86 0 l0 1.72 l-7.86 0 l0 4.8 l8.66 0 z M513.388 13.84 l0 6.16 l-1.94 0 l0 -14.36 l6.64 0 c2.36 0 4.72 0.82 4.72 3.86 c0 2.12 -1.08 2.9 -2 3.44 c0.82 0.34 1.64 0.7 1.72 2.7 l0.12 2.6 c0.02 0.8 0.12 1.1 0.72 1.44 l0 0.32 l-2.38 0 c-0.28 -0.88 -0.34 -3.06 -0.34 -3.6 c0 -1.18 -0.24 -2.56 -2.56 -2.56 l-4.7 0 z M513.388 7.300000000000001 l0 4.88 l4.5 0 c1.42 0 2.92 -0.36 2.92 -2.48 c0 -2.22 -1.62 -2.4 -2.58 -2.4 l-4.84 0 z M539.46 9.84 l-1.82 0 c-0.1 -2.22 -1.94 -2.92 -3.56 -2.92 c-1.22 0 -3.28 0.34 -3.28 2.52 c0 1.22 0.86 1.62 1.7 1.82 l4.1 0.94 c1.86 0.44 3.26 1.56 3.26 3.84 c0 3.4 -3.16 4.34 -5.62 4.34 c-2.66 0 -3.7 -0.8 -4.34 -1.38 c-1.22 -1.1 -1.46 -2.3 -1.46 -3.64 l1.82 0 c0 2.6 2.12 3.36 3.96 3.36 c1.4 0 3.76 -0.36 3.76 -2.42 c0 -1.5 -0.7 -1.98 -3.06 -2.54 l-2.94 -0.68 c-0.94 -0.22 -3.06 -0.88 -3.06 -3.38 c0 -2.24 1.46 -4.44 4.94 -4.44 c5.02 0 5.52 3 5.6 4.58 z"/></g>
			</g>
		</svg>
	