<?xml version="1.0" encoding="utf-8"?>
<!-- Generator: Adobe Illustrator 27.5.0, SVG Export Plug-In . SVG Version: 6.00 Build 0)  -->
<svg version="1.1" id="Layer_1" xmlns="http://www.w3.org/2000/svg" xmlns:xlink="http://www.w3.org/1999/xlink" x="0px" y="0px"
	 viewBox="0 0 2000 2000" style="enable-background:new 0 0 2000 2000;" xml:space="preserve">
<g>
	<rect style="fill:#FFFFFF;" width="2000" height="2000"/>
	<path style="fill:#F7C9CF;" d="M648.455,395.843c-245.594,251.093-165.915,626.24-165.915,626.24s-275.627,64.58-319.787,399.606
		c-44.16,335.026,45.107,448.171,45.107,448.171l1538.462,4.268c0,0,239.659-923.323-11.481-1358.342
		C1483.699,80.766,894.049,144.751,648.455,395.843z"/>
	<path style="fill:#7A7A7A;" d="M1166.949,1304.232c10.856-4.526,23.767-7.166,37.505-7.312
		c12.74-19.123,42.443-31.887,76.201-31.887c20.259,0,39.469,4.739,54.281,12.864c16.484-23.763,54.346-40.369,97.244-40.369
		c28.18,0,54.908,7.017,74.719,19.439c2.836-0.284,5.701-0.427,8.57-0.427c30.697,0,55.67,15.752,55.67,35.113
		c0,4.349-1.277,8.601-3.707,12.577H1166.949z"/>
	<path style="fill:#7A7A7A;" d="M620.759,1430.47c-14.763-6.155-32.319-9.745-50.999-9.942
		c-17.324-26.004-57.715-43.36-103.618-43.36c-27.548,0-53.67,6.444-73.812,17.493c-22.415-32.312-73.899-54.894-132.233-54.894
		c-31.077,0-60.855,6.277-85.37,17.661c-4.941,20.231-8.99,41.624-11.974,64.262c-0.389,2.945-0.764,5.869-1.131,8.78H620.759z"/>
	<path style="fill:#7A7A7A;" d="M1848.827,1025.204c-7.269-2.199-15.406-3.433-23.992-3.433c-2.869,0-5.734,0.143-8.57,0.426
		c-19.811-12.422-46.539-19.44-74.719-19.44c-42.898,0-80.76,16.607-97.244,40.369c-14.813-8.125-34.021-12.863-54.281-12.863
		c-33.758,0-63.461,12.763-76.201,31.886c-13.736,0.146-26.649,2.785-37.504,7.312h373.171
		C1849.416,1054.695,1849.2,1039.937,1848.827,1025.204z"/>
	<path style="fill:#7A7A7A;" d="M759.247,688.506c4.426,0,4.637-6.598,0.219-6.846c-1.619-0.091-3.253-0.146-4.899-0.163
		c-12.213-18.332-40.688-30.567-73.049-30.567c-19.42,0-37.836,4.543-52.035,12.333c-15.802-22.78-52.097-38.7-93.221-38.7
		c-9.283,0-18.393,0.813-27.134,2.34c-6.93,20.693-12.715,41.292-17.524,61.604H759.247z"/>
	<path style="fill:#7A9AFB;" d="M1828.86,1874.128H129.541c-12.664,0-22.93-10.266-22.93-22.93l0,0
		c0-12.664,10.266-22.93,22.93-22.93H1828.86c12.664,0,22.93,10.266,22.93,22.93l0,0
		C1851.79,1863.862,1841.524,1874.128,1828.86,1874.128z"/>
	<g>
		<g>
			<path style="fill:#20110C;" d="M447.968,332.696c0,0-80.023-20.556-89.566,64.606c-9.544,85.162,33.771,98.376,10.278,139.489
				c-23.494,41.113-43.635,10.725-55.063,127.009c-30.891,314.344,265.717,310.114,320.761,228.004
				c32.37-48.285,10.519-89.675,51.946-92.602c106.424-7.519,84.424-131.557,31.747-142.668
				c-90.141-19.013-134.102-102.31-104.29-165.515c33.535-71.1-6.322-152.214-61.151-176.629
				C508.118,294.568,457.512,289.382,447.968,332.696z"/>
			<path style="fill:#FF7446;" d="M667.928,1766.739c0,0-1.452,22.204,9.862,34.826c11.313,12.622,53.398,19.315,59.054,33.676
				c5.655,14.363-42.407,15.248-58.561,10.853c-16.155-4.397-58.125-7.862-68.633-8.438c-10.508-0.575,13.51-70.403,15.666-72.335
				C627.471,1763.389,667.928,1766.739,667.928,1766.739z"/>
			<path style="fill:#FF7446;" d="M422.117,1752.986c0,0,10.424,46.882,9.435,64.98c-0.989,18.097-23.018,46.17-39.948,45.243
				c-16.93-0.924-30.95-12.23-26.818-34.255c4.132-22.025,16.948-74.386,16.948-74.386L422.117,1752.986z"/>
			<path style="fill:#407FFE;" d="M296.584,961.369c0,0-10.802-357.12,6.153-374.075c6.792-6.792,62.292-25.114,100.222-31.351
				c56.76-9.333,101.223-5.336,101.223-5.336s57.84,69.316,57.84,95.042s3.694,318.476,3.694,318.476
				c44.77,16.5,114.046,313.058,119.237,389.463c5.192,76.403-6.04,431.797-6.04,431.797l-65.193-7.077
				c-35.595-55.815-51.625-349.749-62.026-386.334c-14.353-50.491-81.756-205.099-81.756-205.099l-34.722-15.141
				c0,0,8.039,233.048,5.102,286.758c-2.936,53.708,0.407,313.872,0.407,313.872l-65.385-3.575
				c-51.193-91.801-87.762-515.389-86.549-537.572c1.214-22.185-21.391-58.553-26.117-122.05
				C258.944,1059.058,296.584,961.369,296.584,961.369z"/>
			
				<rect x="411.012" y="952.19" transform="matrix(-1 -1.224647e-16 1.224647e-16 -1 937.9991 1916.6592)" style="fill:#FFFFFF;" width="115.976" height="12.28"/>
			<path style="fill:#271798;" d="M458.515,969.4h22.349c4.114,0,7.449-3.335,7.449-7.449v-5.356c0-4.115-3.336-7.45-7.45-7.45
				h-22.349c-4.114,0-7.449,3.335-7.449,7.449v5.355C451.065,966.065,454.4,969.4,458.515,969.4z"/>
			<path style="opacity:0.38;fill:#001C41;" d="M296.584,961.369c0,0-9.593-317.143,3.493-367.878
				c16.977-11.438,70.978-31.668,84.205-32.711c-2.41,26.076,21.25,172.743,45.527,248.055
				c15.327,47.551,13.059,105.874,7.274,151.199h0.025c-3.614,28.204-9.17,55.419-15.495,79.205
				c-1.395,0.426-37.396,19.742-99.942,19.746c-2.675-0.146-26.103-1.71-52.874-5.88
				C278.684,1007.828,296.584,961.369,296.584,961.369z"/>
			<path style="opacity:0.38;fill:#001C41;" d="M488.784,1042.788c-1.376-4.515,9.263-56.084,12.585-82.754h0.071
				c21.99-178.596,2.19-406.044,1.888-409.496c0.012,0,0.028,0.001,0.04,0.003c1.333,1.307,5.104,5.563,10.134,11.658
				c15.524,19.782,45.275,59.893,48.267,80.329c0.051,0.611,0.087,1.211,0.087,1.787c0,0.172,0,0.356,0,0.551
				c0.005,3.223,0.055,9.643,0.139,18.511c0.014,1.725,0.086,3.531,0.206,5.402c0.739,75.313,3.515,295.346,3.515,295.346
				c14.46,5.331,31.477,39.881,48.065,86.787C559.908,1054.285,492.591,1055.271,488.784,1042.788z"/>
			<path style="fill:#E09379;" d="M233.273,1007.977c-0.101,44.781,120.441,47.942,177.739,22.218l-6.236-194.11l-19.659-276.473
				c0,0-72.422,14.366-97.075,31.128c0,0-7.996,287.442-15.011,345.908C266.014,995.114,233.319,987.562,233.273,1007.977z"/>
			<path style="fill:#E09379;" d="M567.884,566.282c0,0,28.283,228.885,28.283,288.521c0,59.635,11.292,162.529,11.292,162.529
				s-61.004,23.386-103.585,12.862c0,0,40.441-229.609,40.441-244.601c0-14.991-40.991-235.144-40.991-235.144
				S542.249,552.537,567.884,566.282z"/>
			<polygon style="fill:#271798;" points="605.717,1782.67 684.824,1787.815 684.92,1767.353 602.558,1762.851 			"/>
			<polygon style="fill:#271798;" points="366.468,1769.487 444.932,1774.631 445.379,1754.259 363.018,1749.755 			"/>
			<path style="fill:#001653;" d="M614.104,1797.217c6.24,7.886,26.594,24.031,86.172,16.894
				c15.51,6.257,33.058,12.217,36.568,21.131c5.655,14.363-42.407,15.248-58.561,10.852c-16.155-4.396-58.125-7.861-68.633-8.437
				C603.924,1837.343,608.45,1816.466,614.104,1797.217z"/>
			<path style="fill:#001653;" d="M431.552,1817.967c-0.989,18.097-23.018,46.17-39.948,45.243
				c-16.93-0.924-30.95-12.23-26.818-34.256c1.391-7.412,3.765-18.263,6.304-29.396c2.159,13.74,8.542,37.125,26.611,29.033
				c19.556-8.756,28.199-29.08,31.625-37.007C430.843,1801.742,431.898,1811.623,431.552,1817.967z"/>
			<path style="opacity:0.18;fill:#001653;" d="M600.499,942.372c-22.889-1.163-51.99-2.631-80.653-4.046
				c1.706-9.923,3.454-20.133,5.192-30.349l73.29,3.889C598.965,922.002,599.712,932.369,600.499,942.372z"/>
			<path style="opacity:0.18;fill:#001653;" d="M295.374,952.19c-9.618,0-17.597-2.766-23.782-6.181
				c2.035-10.695,3.184-27.07,4.162-41.986h152.974c-0.226,10.188-0.804,20.235-1.62,29.942
				c-10.005-0.419-16.988-0.664-19.604-0.664C389.722,933.3,320.513,952.19,295.374,952.19z"/>
			<g>
				
					<rect x="192.938" y="993.571" transform="matrix(0.0175 -0.9998 0.9998 0.0175 -716.2028 1274.8291)" style="fill:#7F3100;" width="195.314" height="16.565"/>
			</g>
			<path style="opacity:0.38;fill:#001C41;" d="M368.149,1167.608l-4.854,77.517c0,0-28.732,22.163-72.555,21.819
				c-1.57-20.303-2.305-33.592-2.115-37.062c0.543-9.93-3.685-22.703-8.947-39.478L368.149,1167.608z"/>
			<path style="fill:#E09379;" d="M567.384,566.782c0,0,21.4,4.501,51.606,105.706c30.206,101.206,10.135,231.227-10.709,244.724
				c-20.844,13.497-223.275,8.5-223.275,8.5l-0.784-72.916c0,0,153.249-23.946,168.42-42.554c3.727-4.571-2.671-24.157-1.337-46.433
				C555.399,695.413,567.384,566.782,567.384,566.782z"/>
			<path style="fill:#DC7A63;" d="M559.889,799.497c0,0,20.945-14.422,28.812-24.07c7.866-9.648,23.609-22.627,24.309-15.746
				c0.701,6.881-6.507,16.792-6.507,16.792s28.618-19.99,32.409-16.9c3.79,3.09,7.55,24.511,4.901,48.164
				c-2.65,23.654-69.734,40.87-69.734,40.87L559.889,799.497z"/>
			<path style="fill:#993B00;" d="M299.376,1236.166l6.054,0.616c34.561,4.803,59.603-8.828,60.278-21.893l6.326-122.516
				l-67.179-6.837c-13.037-1.325-25.205,6.71-29.103,19.223l-31.299,100.455C240.328,1218.455,265.671,1232.737,299.376,1236.166z"
				/>
			<path style="fill:#7F3100;" d="M366.265,1211.498l9.679-118.727l-10.649-1.084c-13.145-1.337-25.116,7.636-27.521,20.627
				l-17.251,93.172C314.913,1235.783,363.762,1242.207,366.265,1211.498z"/>
			<g>
				<polygon style="fill:#7F3100;" points="375.233,1107.264 563.389,562.433 549.222,557.169 361.065,1102.001 				"/>
			</g>
			<path style="fill:#E6A088;" d="M292.308,937.041c72.989,12.178,227.03-42.062,289.496-61.69l-23.414-81.04
				c0,0-183.974,50.898-208.08,40.08c-11.915-5.348-42.452-62.008-53.651-119.637c-11.457-58.953-8.617-124.013-8.617-124.013
				s-52.85,69.137-37.956,215.509C261.45,917.938,260.19,931.682,292.308,937.041z"/>
			<path style="fill:#DC7A63;" d="M310.775,770.725c0,0,17.23,14.581,30.669,25.537c13.439,10.956,34.5,40.396,34.5,40.396
				s-24.992,5.936-33.749,6.825c-8.757,0.892-37.564-15.136-47.572-14.118c-10.008,1.018-7.093-13.814,5.173-11.271
				c12.267,2.544,24.406,3.836,24.406,3.836s-28.781-18.875-42.219-29.832c-13.439-10.956-2.563-19.245,8.434-10.281
				c10.995,8.965,22.916,14.042,22.916,14.042s-38.721-32.715-33.102-39.607C285.85,749.363,310.775,770.725,310.775,770.725z"/>
			<path style="fill:#7F3100;" d="M259.087,1158.247c4.667,5.868,10.876,11.122,19.122,14.409
				c29.348,11.703,70.575-36.515,70.989-37.002l1.924,1.629c-1.538,1.817-33.987,39.746-62.941,39.746
				c-3.716,0-7.376-0.624-10.906-2.03c-8.092-3.228-14.31-8.239-19.082-13.883L259.087,1158.247z"/>
			<path style="fill:#F26E5A;" d="M483.85,478.251c0,0-3.638,57.874,0,71.102c1.04,3.779,3.267,6.776,5.918,9.128
				c13.716,12.169-30.407,136.157-43.747,131.488c-14.386-5.035-40.32-89.116-48.657-116.386
				c-2.468-8.069-1.749-15.423,6.331-17.854c0.033-0.011,0.914-0.203,3.056-1.012c13.142-4.968,18.975-110.683,18.975-110.683
				L483.85,478.251z"/>
			<path style="opacity:0.65;fill:#F26E5A;" d="M434.73,441.033c0,0-0.119,2.64-0.372,7.103c-0.505,8.915,0.61,17.868,3.501,26.316
				c13.361,39.046,36.242,61.597,54.096,66.553c-2.033-19.109,0.9-65.756,0.9-65.756L434.73,441.033z"/>
			<path style="fill:#FC7E72;" d="M426.831,399.35c0,0,10.388-41.551,41.984-53.237c31.596-11.687,60.029-1.732,69.984,39.387
				c9.955,41.119-7.225,105.609-26.702,125.086C492.621,530.064,427.045,495.218,426.831,399.35z"/>
			<path style="fill:#FC7E72;" d="M435.92,412.768c0,0-15.149-24.671-25.104-10.821c-9.955,13.851-2.164,47.611,16.015,49.775
				C445.01,453.886,435.92,412.768,435.92,412.768z"/>
		</g>
		<g>
			<g>
				<path style="fill:#FF7446;" d="M1582.935,1745.785c0,0,0.175,1.826,0.175,4.873c0.003,9.146-1.568,29.296-14.168,44.166
					c-16.801,19.827-16.901,44.492,0.85,48.706c17.749,4.215,60.076-1.348,60.076-1.348s9.569-18.863,3.034-69.246
					c-6.534-50.384-10.326-105.642-10.326-105.642l-48.229-8.543L1582.935,1745.785z"/>
				<path style="fill:#422F7F;" d="M1573.483,1767.206c0,0-17.891,27.54-22.077,39.031c-4.188,11.49-3.286,40.068,0,43.013
					c28.93,25.908,83.778,2.59,83.778,2.59s3.771-18.998,5.676-42.316c1.901-23.319,0.831-45.048-5.676-45.048
					c-6.506,0-7.647,12.229-22.493,8.775C1597.847,1769.796,1588.71,1763.751,1573.483,1767.206z"/>
				<path style="fill:#FFFFFF;" d="M1639.736,1821.137c-11.151,4.941-26.29,10.719-40.368,12.999
					c-15.026,2.435-35.258-5.153-50.523-12.779c-0.79,12.217,0.341,25.905,2.561,27.894c28.93,25.908,83.778,2.59,83.778,2.59
					S1637.767,1838.833,1639.736,1821.137z"/>
				<path style="fill:#FF7446;" d="M1443.737,1712.57c6.261,22.327,0.072,46.908-15.975,61.659
					c-5.539,5.092-11.973,9.863-19.25,13.473c-28.094,13.931-64.483,10.8-69.556,39.416c-5.071,28.618,178.146-8.029,178.146-8.029
					s-12.711-69.605-13.533-81.263c-0.823-11.658,1.119-54.471,1.119-54.471l-70.757-5.764L1443.737,1712.57z"/>
				<path style="fill:#422F7F;" d="M1509.662,1769.832c0,0,2.24,11.052,7.371,29.792c5.132,18.738,1.931,36.386,1.931,36.386
					s-171.61,9.223-178.558,3.057c-6.946-6.166-3.379-28.61-1.623-30.598c1.756-1.988,23.535-8.661,34.705-16.479
					c11.169-7.816,49.316-37.394,62.204-36.198c12.888,1.194,18.839,11.993,43.313,13.229
					C1503.479,1770.254,1503.583,1764.438,1509.662,1769.832z"/>
				<path style="fill:#FFFFFF;" d="M1340.406,1839.066c6.947,6.166,178.558-3.057,178.558-3.057s2.101-11.579,0.17-25.939
					c-89.582,18.825-180.351-1.602-180.351-1.602C1337.027,1810.456,1333.46,1832.9,1340.406,1839.066z"/>
				<path style="fill:#9CB9BD;" d="M1519.134,1810.07c-61.179,13.858-128.996,10.926-180.351-1.602
					c93.41,16.001,168.731,3.603,163.52,4.201C1502.53,1812.635,1520.263,1809.895,1519.134,1810.07z"/>
				<path style="fill:#422F7F;" d="M1653.818,1028.275l-16.124,704.815l-77.137-11.067c0,0-24.441-565.594-38.746-582.357
					c-14.307-16.764-20.028,1.055-20.028,1.055s-61.52,235.309-50.074,282.247c11.445,46.937,62.518,298.388,62.518,298.388
					l-73.963,3.354c0,0-84.409-192.78-84.409-326.888c0-134.106,52.151-357.059,52.151-357.059L1653.818,1028.275z"/>
				<rect x="1428.121" y="1703.55" style="fill:#021753;" width="89.074" height="20.741"/>
				<rect x="1554.594" y="1706.896" style="fill:#021753;" width="89.929" height="26.195"/>
				<g>
					<path style="fill:#021753;" d="M1621.115,1717.19c-0.164,0-0.332-0.021-0.5-0.066c-1.23-0.321-2.007-1.753-1.73-3.194
						c14.243-74.64,15.164-559.628,15.171-564.518c0.002-1.476,1.023-2.671,2.284-2.671h0.004c1.259,0.003,2.282,1.201,2.279,2.683
						c-0.03,19.988-0.928,490.464-15.281,565.674C1623.105,1716.344,1622.161,1717.19,1621.115,1717.19z"/>
				</g>
				<g>
					<path style="fill:#021753;" d="M1501.684,1717.19c-0.93,0-1.803-0.672-2.143-1.754
						c-3.465-11.065-84.751-271.383-80.149-307.327c4.536-35.43,56.467-258.608,58.676-268.092c0.329-1.428,1.59-2.255,2.805-1.877
						c1.216,0.391,1.935,1.86,1.602,3.287c-0.54,2.317-54.069,232.357-58.565,267.476c-4.432,34.604,79.075,301.994,79.919,304.688
						c0.434,1.388-0.172,2.928-1.356,3.434C1502.211,1717.138,1501.945,1717.19,1501.684,1717.19z"/>
				</g>
				<path style="fill:#F99662;" d="M1335.96,690.367l-8.64,31.073c0,0-184.024-47.488-205.623-57.855
					c-17.477-8.39-53.244-19.28-79.11-17.478c-4.208,0.294-8.496,6.343-4.394,7.329c16.279,3.917,18.707,4.323,18.707,7.557
					c0,4.319-32.596,10.679-30.24,15.983c4.752,10.692,20.736,16.848,23.761,26.784c3.022,9.935,36.104,2.158,47.427,2.158
					c11.322,0,221.267,127.437,284.768,97.198c63.502-30.239,25.056-164.37,25.056-164.37L1335.96,690.367z"/>
				<polygon style="fill:#2257F8;" points="1421.683,534.718 1314.013,676.755 1440.873,723.028 				"/>
				<path style="fill:#7A9AFB;" d="M1701.934,488.842c-16.359-16.36-54.443-28.375-79.27-34.815
					c-14.262-3.699-29.097-4.549-43.697-2.569l-55.874,7.576c0,0-72.573,46.655-99.788,73.87
					c-27.216,27.214-51.838,197.632-51.838,197.632l12.334,64.937l-14.193,285.897c6.246,0,193.638,22.903,297.744-8.329
					c0,0,0-152.483,2.871-245.089C1682.447,757.622,1723.586,510.495,1701.934,488.842z"/>
				<path style="fill:#5C73BC;" d="M1700.791,487.739c-8.577-8.004-21.787-14.446-32.592-18.917
					c-0.008,0.01-0.012,0.016-0.012,0.016s-20.628-11.31-39.354,65.879c-18.728,77.188,5.054,171.099-3.244,179.398
					c-8.299,8.299-190.59-1.106-190.59-1.106s106.511,61.217,158.492,105.843c20.847,17.896,76.134,27.298,76.235,26.708
					c0.154-6.061,0.319-11.947,0.495-17.609C1676.124,793.996,1725.875,511.137,1700.791,487.739z"/>
				<path style="fill:#B3CCFF;" d="M1240.889,650.38l91.536,172.956c2.15,4.063,6.436,6.493,10.979,6.225l108.747-6.415
					c7.795-0.46,12.962-8.382,10.319-15.822l-56.084-157.888c-1.583-4.458-5.638-7.53-10.307-7.81l-144.198-8.653
					C1242.757,632.426,1236.571,642.221,1240.889,650.38z"/>
				<path style="fill:#1B1464;" d="M1471.078,806.46l-56.795-156.417c-1.603-4.416-5.709-7.46-10.438-7.737l-5.632-0.331
					c3.276,1.173,5.934,3.756,7.149,7.137L1462.158,807c2.441,6.789-1.7,13.977-8.441,15.533l6.912-0.398
					C1468.522,821.68,1473.754,813.832,1471.078,806.46z"/>
				<path style="fill:#F99662;" d="M1676.014,699.218l-8.64,31.072c0,0-184.025-47.488-205.623-57.855
					c-17.477-8.39-86.935-26.963-112.801-25.162c-4.209,0.294-4.757,6.235-0.654,7.222c16.279,3.917,48.657,12.114,48.657,15.348
					c0,4.319-32.596,10.679-30.24,15.982c4.753,10.692,20.737,16.848,23.762,26.784c3.022,9.935,36.104,2.158,47.427,2.158
					c11.322,0,221.266,127.438,284.768,97.199c63.502-30.239,25.056-164.37,25.056-164.37L1676.014,699.218z"/>
				<path style="fill:#FFFFFF;" d="M1523.051,459.061c-0.006,0.004-0.01,0.007-0.017,0.011c-0.053,0.034-0.142,0.092-0.266,0.171
					c-0.037,0.024-0.078,0.05-0.122,0.079c-0.064,0.042-0.136,0.088-0.215,0.139c-0.048,0.031-0.098,0.064-0.149,0.097
					c-0.13,0.085-0.275,0.178-0.436,0.282c-0.057,0.037-0.116,0.075-0.175,0.114c-0.163,0.105-0.337,0.218-0.523,0.339
					c-0.029,0.019-0.058,0.039-0.088,0.057c-0.048,0.031-0.096,0.062-0.144,0.094c-0.04,0.026-0.079,0.051-0.12,0.077
					c-0.092,0.06-0.188,0.122-0.285,0.186c-0.049,0.032-0.097,0.063-0.146,0.095c-0.355,0.232-0.741,0.483-1.159,0.756
					c-0.075,0.049-0.151,0.099-0.229,0.15c-6.894,4.506-21.645,14.26-38.004,25.759v0.001c0,0-6.805,27.292-3.564,44.787
					c3.24,17.496,10.043,23.003,19.763,19.116c9.72-3.887,27.972-29.792,32.13-28.341c4.157,1.451,32.344,36.765,45.951,31.257
					c9.15-3.703,36.591-63.778,50.336-99.491c-0.994-0.265-1.969-0.521-2.926-0.769c-14.262-3.699-29.097-4.549-43.697-2.569
					l-55.875,7.576c0,0-0.007,0.005-0.02,0.013C1523.066,459.052,1523.06,459.057,1523.051,459.061z"/>
				<path style="fill:#F99662;" d="M1480.975,426.637l12.311,61.557c0,0,11.663,34.991,34.343,34.991
					c22.68,0,59.491-72.832,59.491-72.832l-53.072-69.724L1480.975,426.637z"/>
				<path style="fill:#F99662;" d="M1480.975,426.637l12.311,61.557c0,0,11.663,34.991,34.343,34.991
					c22.68,0,59.491-72.832,59.491-72.832l-53.072-69.724L1480.975,426.637z"/>
				<path style="opacity:0.4;fill:#F26E5A;" d="M1546.97,397.608l-12.923-16.978l-53.072,46.007l6.637,33.184
					C1516.132,454.393,1542.281,430.76,1546.97,397.608z"/>
				<path style="fill:#F99662;" d="M1425.248,288.941c0,0-10.367,140.287,30.454,152.922c40.824,12.637,92.014-17.495,92.014-64.797
					C1547.716,329.764,1529.571,234.836,1425.248,288.941z"/>
				<path style="fill:#271798;" d="M1462.83,257.19c0,0-77.108-15.875-79.7,6.48c-2.593,22.354,23.565,36.61,40.942,36.61
					c17.374,0,61.275-5.994,76.018,8.747c14.74,14.742,44.934,86.081,44.934,86.081l15.343,20.098c0,0,2.253-39.113,19.748-64.384
					c17.495-25.271,3.106-65.018-17.953-91.26C1541.103,233.319,1480.002,257.19,1462.83,257.19z"/>
				<path style="fill:#F99662;" d="M1518.647,346.016c0,0,5.519-19.996,16.361-18.137c24.604,4.219,10.558,48.557,2.749,50.397
					C1521.888,382.018,1514.314,369.882,1518.647,346.016z"/>
				<path style="fill:#95AEFC;" d="M1633.724,548.475c-0.8,46.087,24.147,182.063,24.147,182.063s96.765-1.944,104.54-9.72
					c7.775-7.776-17.146-212.966-59.883-241.721C1651.487,444.752,1634.496,504.006,1633.724,548.475z"/>
				<g>
					<path style="fill:#B3CCFF;" d="M1537.202,637.379c-2.782,0-7.089-0.579-10.723-3.583c-4.191-3.466-6.317-9.164-6.317-16.934
						c0-22.094,3.926-81.642,3.967-82.242c0.055-0.82,0.773-1.408,1.583-1.385c0.818,0.055,1.439,0.763,1.385,1.582
						c-0.041,0.599-3.961,60.049-3.961,82.045c0,6.829,1.755,11.749,5.216,14.625c4.688,3.895,11.104,2.758,11.167,2.747
						c0.815-0.156,1.583,0.381,1.736,1.185c0.151,0.805-0.377,1.583-1.182,1.736
						C1539.958,637.176,1538.844,637.379,1537.202,637.379z"/>
				</g>
				<path style="fill:#B3CCFF;" d="M1540.793,546.754c0.454,2.397-1.608,4.461-4.007,4.008c-1.331-0.252-2.421-1.34-2.675-2.671
					c-0.46-2.402,1.61-4.472,4.012-4.012C1539.454,544.334,1540.541,545.423,1540.793,546.754z"/>
				<path style="fill:#B3CCFF;" d="M1540.793,580.452c0.454,2.397-1.608,4.461-4.007,4.008c-1.331-0.252-2.421-1.339-2.675-2.67
					c-0.46-2.402,1.61-4.472,4.012-4.012C1539.454,578.032,1540.541,579.121,1540.793,580.452z"/>
				<path style="fill:#B3CCFF;" d="M1540.794,614.649c0.451,2.397-1.61,4.457-4.007,4.005c-1.332-0.251-2.421-1.339-2.676-2.669
					c-0.461-2.404,1.611-4.475,4.015-4.013C1539.457,612.228,1540.543,613.317,1540.794,614.649z"/>
			</g>
			<g>
				<path style="fill:#4F4F63;" d="M1084.73,710.179c3.563,9.166-11.508,17.753-17.329,10.141l-67.336-103.059l27.792-16.265
					L1084.73,710.179z"/>
				<path style="fill:#407FFE;" d="M1050.756,629.828l-38.021,20.452c-2.261,1.216-5.055,0.562-6.465-1.514l-4.723-5.076
					c-6.874-7.388-4.728-19.327,4.352-24.211l22.88-12.307c9.032-4.859,20.125-0.145,22.569,9.591l1.731,6.897
					C1053.994,625.97,1052.994,628.624,1050.756,629.828z"/>
				<path style="fill:#4F4F63;" d="M1017.931,563.422c18.614,4.87,29.756,23.908,24.885,42.522
					c-4.87,18.614-23.908,29.756-42.523,24.886c-18.614-4.871-29.755-23.909-24.885-42.523
					C980.278,569.693,999.316,558.552,1017.931,563.422z"/>
			</g>
			<path style="fill:#F99662;" d="M1071.435,657.81c-3.727-4.92-14.763-11.582-14.763-11.582
				c-11.773-0.494-27.771,0.699-30.581,2.189c-2.811,1.491,3.442,10,23.274,12.752c19.833,2.753,36.829,10.505,36.829,10.505
				C1082.914,660.791,1071.435,657.81,1071.435,657.81z"/>
			<path style="fill:#F99662;" d="M1032.349,671.913c9.507-3.49,29.471-7.097,28.576-0.91c-0.895,6.187,13.548,9.534,14.153,12.556
				c0.605,3.023-6.604,10.538-2.664,15.278c3.94,4.74-6.932,10.27-15.92,9.07c-9.658-4.554-2.278-10.807-14.578-19.868
				C1029.617,678.979,1028.989,673.482,1032.349,671.913z"/>
		</g>
	</g>
</g>
</svg>
